<?xml version="1.0" encoding="UTF-8"?>
<svg id="Layer_1" data-name="Layer 1" xmlns="http://www.w3.org/2000/svg" viewBox="0 0 1590.12 795.51">
  <defs>
    <style>
      .cls-1 {
        fill: #fbb040;
      }
    </style>
  </defs>
  <g>
    <path class="cls-1" d="M379.53,742.41c1.22,2.08-5.92,2.91-6.42,5.71l-1.2,6.6c2.2.38,5.62-.99,8.25-2.79l.97,3.3c.08.26-3.07,1.83-5.62,4.23-1.02.96,3.89,6.85,4.49,6.46l2.84-1.82c5.25-3.36,12.84-8.66,12.82-14.83,0-2.54-2.5-5.41-5.13-7.13l-7.99,12.54c-2.3-3.48-.52-5.39.78-8.01l2.82-5.67c4.13-3.23-15.69,2.13-6.82-1.81l2.44-1.08c1.05-.46,4.23-1.5,4.45-2.74.71-3.97.34-11.07-1.9-14.75-2.12-3.48-5.85-5.57-3.38-10.9-3.12.65-5.15.98-6.88.18-4.86-2.25-4.58-11.6-4.53-16.48l7.4-5.35c-8.12-10.38.62-17.63-1.83-29.63l-9.23,12.58c-.68.93-3.47.84-4.04.04-3.03-4.24-.77-10.2-.04-14.44.69-4.02,3.13-6.2,4.82-9.39,3.48-6.56,6.42-12.44,10.4-18.83,1.66-2.67-.64-8.32-.44-11.26.31-4.57-.14-7.49-4.51-8.97l-2.69-7.71c-.66-1.88.19-6.01.52-8.44.65-4.76.05-9.49.16-13.99.17-7.04,1.07-12.64-2.47-19.36-2.15-4.08-1.6-10.7-2.44-15.32-1.56-8.6-.73-15.88,3.2-23.63,7.55-14.91.83-13.43,1-23.39.91-.29,3.48-.45,3.91.18l1.74,2.55,2.8-3.42c.69-.85,4.42-.49,4.52.64.19,2.28-1.59,5.48-2.73,7.45l1.67.84c2.83,1.42-3.93,2.71-.54,11.78,1.31,3.49,2.62,6.83,4.03,9.75,2.52-.88.71-3.7,1.11-4.7,2.04-5.05,5.56-11.27,9.67-15.2,3.82-3.65,5.89,5.71,8.76,6.78s13.52-11.59,7.1-21.37c.25-2.18,4.46-3.14,6.48-2.48,2.05.67,3.56,4.23,2.4,6.82-3.33,7.4-5.34,17.65,1.74,23.7,4.53,3.87,12.89.63,17-3.04l8.55-7.62c1.56-1.39,3.4-5.05,5.03-7.5.58-1.07-3.27-1.51-5.07-1.75l-4-7.64c.94-3.39,2.83-7.28,5.74-9.89,3.05-2.74,10.39-1.59,14.21.82-.13,4.03-.86,8.14-1.66,12.14l10.29-1.83c3.64-1.05,4.98-7.37,10.1-4.82-.63,11.52,4.62,20.33-3.83,27.13,4.97,3.67,2.62-.3,10.64-1.22.61-.07.99-2.14,1.47-2.58,4.59-4.21,10.09-8.75,14.53-13.49,3.36-3.58,6.89-9.98,11.53-12.02.94-.41,4.17.43,3.99,1.37-3.2,16.35-10.13,16.72-5.55,20.06,5.96-6.71,17.12-21.12,26.4-20.81,3.72,1.97,6.96,7.65,4.93,11.76,2.19.25,4.7.38,5.67,1.17,1.14.93.11,4.4-.79,6.67,6.97,1.32,13.39-2.18,17.95-8l5.7-7.28c-6.49,1.46-11.57-2.78-16.23-6.3-3.16-2.38-5.48-4.28-3.88-8.79.41-1.14,1.14-3.14,2.01-3.59,3.59-1.86,17.59,1.89,21.78,7.09l-.04,9.03c4.13,1.45,8.44,4.63,8.55,8.71l3.43,1.14c.89.3.99,2.94,1.35,3.87l1.33,3.46c.35.91,3.24,1.23,3.74.97l.22-5.04c-3.8-3.13-5.5-7.81-5.43-12.81.1-7.03,2.21-14.33,9.82-16.13,2.35,3.04,5.28,6.18,8.16,8.91l2.1,8.02c12.49.49,5.88,10.51,12.26,12.51,9.61,3.02,12.62,32.05,10.81,41.08l-1.71,8.54c-4.26,21.29-13.56,29.62-32.88,39.57-4.17,2.15-9.81-1.12-13.94-1.38-20.85-1.29-16.01.43-33.97,2.07-3.19.29-6.85-2.01-9.66-2.4-21.19-2.94-34.55-3.09-56.85,2.24,5.79,2.04,11.73,3.35,17.55,3.6l21.06.92c3.14.14,7.08,1.06,10.03,1.09l36.88.35,24.63.12c11.16.05,16.01,18.19,18.05,26.21,3.27,12.87.87,21.61-5.04,32.94l-3.7,7.09c-2.97,5.69-7.11,6.22-13.02,6.54-6.32.34-12.99,1.5-19.32,2.6-7.7,1.34-29.39,3.61-37.49,3.95l-21.07.88c-5.58.23-11.71-1.22-17.29-.2l-14.94,2.73c1.62,6.08,31.58,8.9,34.19,8.77l24.02-1.25,14.33-.47,41.48.08,13.23,2.47c5.71,1.07,10.8.7,16.39,1.7l3.71,4.51c3.03,3.68.99,9.75,2.19,13.98,4.24,15,7.73,24.85.8,40.24-2.45,5.43,1.22,12.26-6.07,15.89-14.44,7.19-14.95,8.61-31.07,10.5l-16.22,1.9-30.56.84c-5.02.14-9.36.5-14.43.32-13.82-.5-11.11,2.26-24.67,2.4l-27.28.29c-6.52.07-13.22-.8-19.67-.03-7.55.91-14.47.23-21.96.02l-37.1-1.04c-3.48-.1-17.4,2.08-18.93.92l-5.83-4.42c-1.31-1-3.1-4.41-3.91-5.23l5.99-3.99c-1.65-.49-4.69-.97-5.2-1.87l-6.03-10.5c-3.88-6.75,1.51-13.43,8.35-16.21.51-.21,1.39,1.22,1.66,1.69ZM572.94,477.13c-.55.11-2.36.54-3.07.5l-11.72-.67c-.44,4.89,14.65,11.4,17.2,10.08-2.46-3.53-1.01-10.18-2.41-9.9ZM602.54,491.62c5.67-6.29-2.02-7.05-2.52-13.55-4.34,2.01-5.65,7.54-4.17,12.42l1.94,6.39,4.75-5.27ZM456.1,494.74l3.29-8.71-10-.04.3,9.78,6.41-1.04ZM542.93,501.38l-2.04-9.03c-4.9.15-17.23,9.49-18.86,14.42,4.2-.93,7.23-1.83,11.26-2.88l9.63-2.51ZM453.04,764.4l25.25.72c6,.17,11.29.21,17.3,0l18.72-.69,10.14-.9,14.01-1.09c15.37-1.19,13.3,1.51,29.37-.24,12-1.31,25.33-.05,36.52-5.76,6.08-4.16,9.54-15.4,8.72-22.18l-1.51-12.5c-.62-5.12-3.21-8.35-8.23-10.1-10.87-3.79-22.81-5.66-34.44-4.33-6.41.74-12.69,0-18.8.16-8.3.21-16.18.22-24.27.85-14.95,1.16-29.62-.05-44.47-3.6-6.06-1.45-12.07-6.11-16.03-10.56-6.94-7.81-3.91-22.61.05-25.28,3.08-2.07,7.67-4.01,11.19-4.8l22.31-5.03c3.62-.82,7.88.39,11.65.52,11.59.39,23.04.81,34.39-.18l12.79-1.12c8.48-.74,26.31-3.16,32.75-8.28,5.02-3.99,4.95-10.32,5.11-16.1.2-7.5-3.13-15.11-11.11-16.06-7.13-.85-19.48-1.67-26.09-1.21-6.22.43-12.22-.09-18.4-.27l-29.09-.85c-8.5-.25-16.25-1.69-24.75-3.22-4.78-.86-12.09-.47-15.44-4.53-2.05-2.49-3.7-4.44-6.61-6.84-2.21-12.14-.07-12.48,8.09-21.44,1.46-1.6,3.89-2.19,6.04-2.94,14.47-5.07,28.05-6.81,43.27-6.01,3.54.19,6.65.82,10.21.96l20.59.8c6,.23,11.32.49,17.28.01,8.65-.69,26.17.55,30.79-2.45,14.51-9.43,17.85-28.99,13.95-45.03l-3.72,3.34c-3.08,2.76-5.62,4.94-10.43,4.93.88-12.92,6.74-11.94-.46-22.02-4.59,1.87-9.25.44-12.32-3.74-1.53,3.45-8.3,17.19-10.39,16.61-5.42-1.5-2.91-14.35,5.05-18.34l.91-9.18-4.96-2.67c-1.79,1.85-3.74,4.26-5.15,6.69-4.44,7.64-12.82,11.73-21.48,12.1l-5.86-7.37c-6.13-.37-16.41,5.91-24.76,7.48-1.11,1.32.44,5.36,2.09,6.23,1.38.73,5.14,1.17,6.49.1l14.84-11.88,2.71,3.18c-6.81,6.13-18.71,18.4-28.08,12.18-2.11-1.4-1.54-7.05-3.31-8.43l-7.43-5.81,3.49-10.51-18.49,18.06c-2.46,2.4-8.09,5.48-11.2,5.87-1.13.14-4.07-1.36-5.11-1.81-.48-.21,1.15-2.46.64-2.54l-2.33-.36c2.26.35-7.78,9.3-14.77,5.27-2.84-1.64-1.7-5.48-.58-7.89l6.59-14.21c-1.45-.16-5.04.1-7.17.79-1.53.49-2.17,3.72-3.43,5.37-8.01,10.51-25.51,30.28-38.51,15.8.69-2.49-2.64-7.17-5.02-6.67-2.74,2.26-5.5,3.13-9.12,2.24-3.28-.81-5.41-1.93-5.83-6.04-5.44,2.97-5.65,9.52-7.79,14.17-2.89,6.27-.78,9.96,3.3,15.11l5.14,6.5c3.32,4.2,2.38,7.35,1.59,11.33-1.33,6.67-3.45,12.69-5.29,19.55l-2.54,9.51c2.11,2.94,4.66,6.38,6.5,9.45l9.76,16.35c1.62,2.72,3.8,4.99,3.95,8.21.27,5.65-.1,10.46-1.63,15.93l-7.56,5.61c-3.12-.35-4.23.44-6.63,1.93-3.02,1.88-7.55,3.59-9.8,5.87-6.45,6.52-7.89,14.17-7.86,22.9.01,3.96-1.38,10.57,1.17,13.53,3.33,1.5,6.31,2.81,9.9,5.09,5.84-7.22,1.8-11.19,7.77-21.04,7.27,10.06,1.9,18.95-3.3,27.7-.5,2.44-.39,7.47-.34,10.11,3.7.52,6.42,2.06,7.06,4.95,1.85,8.42-10.48,7.83-11,13.24-.34,3.58.41,7.81,1.16,11.24,3.57,1.62,6.87,4.9,7.67,8.08,2.2,8.78-6.56,12.69-5.53,14.81.27.56,1.94,1.56,2.57,1.54l9.4-.3c3.1-.1,4.58-.65,7.12,0,9.14,2.33,18.7,2.24,28.05,1.22,4.27-.46,8.19.07,13.02.2ZM612.75,498.73l-8.84-3.94-.54,3.68c-.12.84,3.19.31,3.92.74l2.9,1.69c.59.34,1.67-1,2.57-2.17ZM472.48,513.69c1.52-1.82,1.35-7.75,2.73-9.77.55-.8-.22-3.85-1.18-3.92-3.71-.29-10.88,14.6-12.08,19.22,3.58-1.75,8.58-3.2,10.52-5.53ZM383.08,553.87c.64-1.33,1.67-4.67,2.01-6.03.12-7.18-3.27-15.14-7.8-20.31l-1.33-6.82c.43,22.75-5.44,26.6.35,47.19l6.76-14.03ZM370.35,541.18c1.32-6.04,1.45-11.62.83-16.83-4.3,5.88-5.73,12.28-.83,16.83ZM385.07,575.09c2.59-1.27,4.49-2.41,4.87-3.53l4.29-12.77c1.38-4.1.81-7.54-2.42-9.8-1.27,2.06-3.37,4.42-4.12,5.9l-4.23,8.29,1.61,11.92ZM377.7,590.99l-.55-9.28c-3.03,3.66-3.04,8.02-2.28,12.22.71.37,2.9-1.84,2.83-2.94ZM391.76,594.94l-3.99-5.39c-1.76-2.37-2.72-4.82-4.2-8.13l-2.34,2.01-.79,9.36c4.94-2.32,13.95,9.87,12.21,4.7-.14-.41-.51-2.04-.9-2.56ZM385.53,614.1c.63-1.01,1.91-16.33-2.56-16.33-.73,0-2.39.06-2.43.69l-.21,3.4c-.27,4.23.47,6.53,4.68,9.57-4.69,1.42-5.49,4.94-4.12,10.18l4.64-7.51ZM398.68,610.66c-.81-3.64-1.96-6.29-3.71-8.45-2.11-.36-3.27,3.95-2.4,5.99.6,1.42,3.82,2.49,6.11,2.46ZM393.33,642.35l-1.88-4.69c-.28-.69,2.23-1.81,2.46-2.58l2.91-9.69c.69-2.3,1.05-6.48,1.25-8.57l-6.48-3.86c-2.6,5.01-6.69,11.07-8.47,15.96l-5.75,26.25,8.33-9.32c1.92-2.15,5.01-3.14,7.63-3.51ZM397.18,638.67c4.47-8.79,10.45-9.42,9.31-19.65l-3.5-.28-4.42,14.22c-.92,2.98-5.63,6.22-.75,9.19,1.84-.46,2.56-1.03-.64-3.48ZM365.52,662.59c4.61-5.06,11.23-16.58,12.16-25.92-2.94,1.18-13.85,21.84-12.16,25.92ZM376.77,705.44c3.47-.32,6.29-2.57,9.36-4.89-.83-1.75-7.68-7.96-9.49-7.26-1.18.45-2.92,2.44-3.11,3.54-.47,2.66-.1,8.92,3.24,8.62ZM388.55,715.49l2.07-10.03c-.68-.75-2.36-1.96-3.03-1.41-.54.44-1.97,2.22-1.76,2.89l2.72,8.56Z"/>
    <path class="cls-1" d="M1329.29,764.31l-7.23-13.22c2.08-3.5,5.15,1.61,9.35,1.94l3.8-5.29c5.27.89,10.3,2.24,15.59-.23-15.92-4.05-29.44,3.52-40.7-6.05-2.22-1.89-4.34-5.21-2.96-8.56l2.87-6.99c1.7-1.52,13.52-14.72,11.57-16.22,3.45-3.29,2.86-9.62.2-13.61-.3-1.91-.61-5.35-1.55-7.18l-3.7-7.2c-2.18-1.09-4.23-2.04-5.34-2.91-1.26-1-1.53-5.15-1.17-6.8l6-28.07c1.11-5.19-1.45-11.83,1.71-16.14,3.89-5.28,4.48-11.83.69-17.32l-4.54-6.58c-.7-1.01-.98-4.1-2.17-4.3l-5.62-.95-.44-9.51c-.31-6.74-1.44-13.3-4.51-19.34-.61-1.2.17-4.5,1.33-4.85,1.15-.35,4.01.86,4.41,2.08l2.74,8.37,7.57,2.69c.92,1.69.59,5.83.23,7.87l3.79,5.1c1.23,1.65,6.81,1.33,7.38-1.43,1.1-5.29-.26-10.64-1.19-15.92l-1.79-10.15-1.81-9.75c-.3-1.62,2.38-5.61,3.64-4.66,4.67,3.86,4.22,10.42,4.79,15.61l.8,7.25c.23,2.11,1.38,4.77,2.72,6.23-3.28-17.1,5.81-11.59,4.28-25.22-1.06-9.41,1.72-18.26,8.55-24.48,3.69-3.36,7.72-7.2,13.37-6.44,4.21.56,4.63,9.52,8.32,11.77l10.34-3.43c2.07-.69,4.92-2.16,5.99-3.57,1.61-2.12,1.2-5.65.85-8.21l-1.82-13.24c1.46-.79,4.84.98,5.04,2.49l1.45,10.63c.45,3.32.74,6.4,3.07,9.45,1.95-3.13,4.31-2.74,7.75-3.06,11.32-1.04,21.86-.05,33.36,3.65l12.88,4.14c5.68,1.83-4.69-10.66-.41-14.4,18.13,11.87.75,16.79,13.58,15.16,2.48,6.93,14.14,8.49,22.19,10.14,7.4,1.51,24.79-.37,32-2.51,2.72-.81,5.22-2.24,8.21-2.41,10.78-.62,17.68-8.16,25.66-14.07,2.24-1.66,7.31-3.63,4.93-7.14-.95-1.41-3.53-4.93-2.09-5.89,1.98-1.32,5.45-3.21,6.14-5.73l-10.81-3.44c-3.03-5.91-8.39-9.74-14.68-8.7,2.5,6.39,3.84,14.86-.93,18.81-2.82,2.34-5.35.64-8.8.24-3.09-.36-8.64,3.69-12.28-.11l.6-8.31c.39-5.35,5.8-8.6,9.36-13.1-2.94-.69-6.42.35-9.71,1.93l-6.33,1.76c-9.79,2.71-11.92,5.85-23.84,5.39l-8.1-.31c-13.37,10.41-28.91,15.78-43.44,4.63-1.84-1.41-2.73-7.01-6.04-5.1-3.68,2.12-7.51,4.25-11.61,4.01-7.23-.42-13.84-.58-19.59-4.76-11.67-8.48-14.71-6.53-24.97-14.13l-8.49-1.69,6.16,13.13-2.08,11c-1.43,1.48-20.02,8.82-19.59,5.77l.53-3.76-9.9-4.76,2.72,14.31c.24,1.27.36,3.43-.02,4.41s-3.41,1.1-4.42.88l-2.62-.56c-.47-.1-.7,1.82-1.02,2.28-.48.69-2.85.21-3.01-.62l-.8-4.2c-15.21-9.4-5.57-13.29-14.62-15.48-.57,1.97-.78,2.89-.16,3.11l3.65,1.24-2.24,5.88c-1.04,2.74-1.15,6.15-1.7,9.43-.58,3.51-3.17,7.95-3.18,11.48-.01,7.08,1.57,13.09,2.91,19.88.83,4.17,1.26,8.72,2.36,12.8.71,2.62,2.3,4.85.17,7.49l-7.16-19.55c-1.35-3.67-1.44-9.81-1.78-14.12-1.3-16.56,4.67-26.23,2.54-38.43l-7.53-10.65c-2.88-4.08-3.84-9.07-6.03-13.19l-6.12-11.56c-2.76-5.22-1.95-10.56,1.07-15.04.45-.67.3-3.39,1.02-3.76,3.43-1.76,16.82,9.1,20.71,12.23,3.09,2.5,5.45,7.62,8.69,9.94,2.6,1.86,4.72,3.19,6.49,5.65,2.57,3.58,5.67,7.24,6.39,11.47.46,2.72,1.77,6.1,4.16,5.32l5.64-12.74c.13-.28,5.04-8.82,7.61-9.4,6.41-1.45,1.14,5.73,16.41,6.44,5.72.27,10.75,5.62,15.65,7.71,17.64,7.56,24.77,15.79,42.13,7.27-4.52-12.98-6.89-31.1,4.7-39.67l9.12,3.12,4.89,8.87c1.59,2.87-.31,7.29-1.83,10.05l-5.09,9.25-5.65,9.47c7.8,8.28-1.34,3.61,11.39,8.92,6.65,2.77,13.7,2.35,19.61-1.23l13.27-8.02c-4.56-7.53-4.77-17.57,2.64-23.17,3.81-2.87,11.8-4.29,15.67-1.64,3.21,2.2.85,8.09-.98,10.47-2,2.6-10.3,13.96-9.33,14.38,4.48,1.94,17.31-2.22,23.18-4.49,3.92-1.52,8.13-2.64,12.26-3.88,4.92-1.48,9.32-.6,14.04,1.65,9.02,4.3,7.03-6.9,20.65,8.02,2.46,2.7,4.68,2.48,7.81,2.16,4.98-.51,8.94-1.64,9.87-7.84l4.97,4.74,9.73-7.63c1.81-13.46-4.13-7.84-.16-14.54,4.52-.56,5.13,4.29,5.9,7.24,1.21,4.6-.09,9.35-1.9,12.99-.95,1.91.77,7.72-3.32,7.01-1.6-.28-4.77-1.7-6.14-1.15-1.39.56-3.95,2.84-3.97,3.9,2.55,5.9,4.51,19.09,3.91,24.69-.65,6.02.8,12.92-.82,18.17-2.35,7.64-6.52,13.97-12.18,19-.75.67-10.13,5.85-14.03,6.11l-15.17.99-9.96.89-12.99,1.16c-5.44.49-10.55.89-15.98-.27-7.24-1.55-13.83-.84-21.14-.55-7.8.31-40.39-5.39-47.91,4.23-.56.72,2.08,2.12,3.1,2.21l9.1.76c5.48.46,11.15.19,16.63-.04l8.43-.36c9.3-.39,18.38-.46,27.77.39,20.13,1.83,28.46,1.04,49.01,3.95,6.49.92,23.18,4.12,25.27,10.88,3.46,11.13,1.87,23.7-.77,34.84l-1.81,7.66c-2.68,11.33-11.09,18.69-21.3,24.16-5.35,2.86-12.45,1.08-18.37,1.85-7.61.99-14.47.53-22.02.18l-14.9-.7c-3.88-.18-7.26,0-11.12.04l-35.73.49c-3.24.04-6.7,1.96-9.32,4.13,6.42,8.81,24.14,6.89,34.63,6.2,8.54-.57,17.18.57,25.87,1.03l17.15.91c11.11.59,13.5,2.66,24.33,3.41l12.23.84,23.35.63c7.98.21,9.41,7.54,11.27,13.17,1.24,3.73,3.92,7.69,5.35,11.36l3.77,9.69c1.02,2.63-.23,22.07-1,27.72-.5,3.67-3.84,8.53-5.27,12.01-2.11,5.16-5.06,5.38-9.66,7.04-6.91,2.5-14.04,6.42-21.87,6.62l-11.96.31-9.22.33c-7.62.27-15.27,1.04-22.95.96l-15.87-.16c-6.96-.07-13.11-.43-20.2.3l-12.6-2.46c4.31.84-22.05-1.85-20.45-1.88l-7.94.16-2.78,7.02c-2.47,6.24-7.95,10.18-14.51,9.18-5.31-.81-12.54-9.36-9.85-16.72l-17.2.09c.02,3.47-1.59,6.94-4.3,8.21-1.22.57-4.32-.02-5.08-1.09-.98-1.39-1.77-3.72-2.65-6.29l-9.71.25c-1.34,3.08-10.68,8.02-12.38,8.23-5.53.7-9.27-4.31-10.56-9.13l-12.46-1.75ZM1426.97,489.04l6.92-12.44c1.39-2.5,2.81-7.08,1.89-10.48-.65-2.4-4.2-5.26-7.35-5.87-7.07,6.56-5.41,19.6-1.46,28.8ZM1308.88,472.79c-.59-3.66-11.41-13.15-13.49-11.45.66,8.46,2.98,15.73,6.25,23.68l.44-7.13c.06-1.06.75-3.28,1.45-4.01.7-.73,2.72-.78,5.35-1.09ZM1476.43,492.35c4.46-6.09,7.32-10.86,11.14-17.95-4.98-.09-8.67,1.38-12.44,3.79l-2.23,1.42c-.46.29,1.18,1.83,1.32,2.48l2.2,10.26ZM1310.23,478.37c-.61-1.18-5.2,0-4.95,1.23.54,3.99,2.06,9.01,6.47,11.25.52-3.42.4-8.75-1.53-12.47ZM1346.81,499.55c-1.64-12.39,6.04-11.66,5.92-19.93-4.88-1.68-8.72,2.95-9.59,6.37-.25,1-1.98,3.12-2.36,3.99-1.67,3.75-1.4,10.33,1.52,13.69,1.6,1.85,4.79-2,4.51-4.12ZM1318.97,495.01l7.62,4.27c.66-7.15-1.2-15.13-8.53-18.67l-.14,13.1c-1.08-.2-3.06-.84-2.98-.16l.45,3.55c.09.68,2.95-2.12,3.57-2.08ZM1349.16,508.42c4.74-1.05,9.21-2.09,10.81-5.12,3.17-5.97.16-11.54-4.64-16.97l-4.03,9.19-2.4,3.5.25,9.4ZM1308.45,492.66l-4.4-3.79c.03,4.43,1.63,7.98,5.82,9.27.17-1.84-.43-4.62-1.42-5.48ZM1522.42,510.54c2.61-.53,8.24.73,8.85-3.29s-.72-8.98-2.64-13.97c-10.79,6.82-11.02,6.83-13.85,18.81l7.64-1.55ZM1312.75,499.49c1.72,6.66,7.19,9.94,13.3,10.57-5.51-5.33-5.76-12.9-13.3-10.57ZM1542.91,538.85l8.25-2.55c5.58-1.73,8.17-8.62,6.05-13.84-2.42,2.81-4.48,5.3-6.79,7l-13.2,9.74c1.73.66,3.54.31,5.68-.35ZM1349.97,548.07c7.04-8.36,12.09-5.5,15.67-13.22-1.77-3.37-2.5-5.58-3.51-9.68l-6.37,1.52-7.84,7.11c-3.49,3.16-3.41,6.98-3.49,11l-.2,10.1,5.75-6.82ZM1442.78,533.46l-11.39-3.19c-10.94-3.07-24.1-4.73-34.95-.86,5.41,8.26,13.19,9.3,21.54,10.58,10.75,1.65,21.25,2.14,30.94-4.85l-6.15-1.67ZM1476.62,691.39c-5.14-.2-9.13-.45-13.88.06-15.79,1.7-23.96-2.05-39.1-6.34l-6.4-.77-.58-9.41c-2.01-5.1-3.39-12.99,1.11-16.79,9.95-8.41,12.17-12.64,29.04-10,6.02.94,11.36.06,17.06.18l33.07.68c6.65.14,4.05,2.37,16.89,1.04l12.16-1.26c4.57-.47,9.97-1.77,13.85-3.66,8.49-4.15,10.58-11.88,10.35-20.47l-.57-21.3c-5.76-1.46-11.35-3.74-16.82-4.07-7.4-.45-13.79-1.64-21.09-1.94l-18.53-.77-15.22-1.41c-6.04-.56-13.58,3.41-18.85,1.81-8.3-2.52-15.04-.5-23.35-.53-4.33-.02-10.08-1.4-14.86-1.9-7-.72-9.72-9.28-9.07-15.53l1.46-14.11c17.78-5.11.98-3.44,22.47-6.31,6.94-.93,13.08-1.7,20.28-1.86,2.31-.05,5.77,1.46,7.94,1.69,3,.33,7.47-1.23,10.03.17,3.91,2.15,6.44,1.4,10.19-.4,2.24-.32,7.19-.59,9.59-.12,16.43,3.24,37.34,2.07,53.32-1.48,12.46-2.77,18.02-13.99,14.15-25.31l-4.31,4.75c-8.09,8.48-13.58,5.78-25.91,6.35-19.7.9-5.99,2.25-22.05,3.94l-9.09.96c-17.87,1.88-28.93-1.67-45.23-10.79l-18.25,8.06c-4.08,1.8-10.01-.22-14.41-.39-10.52-.4-20.97-2.16-28.14-10.17-6.25-6.98-8.06.23-16.69,3.3-4.05,1.44-9.91,1.46-13.15,3.68-7.1,4.87-15.51,12.03-19.39,19.46-3.44,6.58-3.3,26.4-2.15,33.17l2.08,12.27c2.71,16-.63,17.67-1.17,30.02-.12,2.83.35,4.5-2.3,6.46,10.18,7.61-7.47,10.77-7.62,36.99-.03,5.33-1.06,11.29-.07,16.19.65,3.21,1.51,6.11,1.82,9.21l2.17,21.85.51,5.41c.11,1.2-2.48,2.64-3.97,2.92-5.94-11.26.23-18.52-6.3-27.21-7.45,8.71-4.91,11.56-13.2,19.7-2.18,2.14-4.49,7.98-1.42,10.15,11.63,8.23,18.36,3.18,21.87,3.46,12.39,1,16.47,6.37,24.8-.62,6.7-5.62,17.05-8.29,24.52,1.1,9.06-8.2,13.01-2.81,29.77-3.43l17.68-.65,3.23,6.42c.39.77-.61,3.59-1.33,3.2-5.1-2.73-6.42-6.74-11.99-4.87l3.7,6.25,12.27,1.67,39.91,4.19c6.67.7,13.3.27,19.73.24l33.18-.15c11.93-.05,19.27-1.14,30.26-5.6,17.09-6.94,13.35-27.6,7.19-39.96-4.5-9.02-22.89-9.64-27.72-10.55l-16.3-3.08-18.99-2.08-10.08-.99-18.15-.7ZM1315.6,591.11l-1.84-10.27-3.67-3.09,2.32,8.86c.55,2.09,1.69,4.32,3.2,4.5ZM1327.78,651.64c2.23-5.83,3.79-10.82,5.56-16.64l5.74-18.95c1.63-5.38.78-10.35-.96-15.11l-2.99-8.15c-2.12,5.83.8,12.01-2.94,15.62-1.16,1.12-5.68,2.22-6.61.76l-6.71-11.84-4.26-1.19c-.08-2.37-.44-3.24-1.48-4.04-.7-.54-3.18.99-3.27,1.98l9.78,8.7c.8,3.67,1.49,5.34,3.91,7.66,3.89,3.74,3.21,11.66-.42,15.95-1.54,1.82-3.51,2.97-3.98,5.45-.36,1.91.74,3.95,1.82,5.98,2.24,4.23-1.56,8.46-2.36,12l-1.19,5.22c-1.11,4.86.16,10.54-1.03,15.19-.51,1.98-2.24,5.36-.67,6.64l6.14,4.98c2.66-7.94,1.77-19.33,5.93-30.21ZM1328.54,692.68l-.25-9.95c-.07-2.72.1-7.69.79-10l2.53-8.45c1.81-6.04,6.42-11.61,8.78-17.22-.47-2.59-1.03-6.37-.87-9.06l.74-12.86c-5.98,14.27-3.57,12.51-9.5,27.34-1.34,3.35-2.85,8.7-3.34,12.23l-1.77,12.79c-.7,5.05-.6,9.26.78,14.53l3.14,11.96c.44-4.04-.95-7.65-1.04-11.3ZM1380.09,749.69c1.05-1.91,1.29-5.95.09-7.2-8.38-8.73-15.94-.8-22.54,3.14l3.87,4.08,18.59-.02ZM1400.51,748.75l5.77-.13c1.69-.04,3.32-7.54,1.7-7.54l-3.72-.02c-5.55-.03-12.12.34-17.15,2.91-.15,3.32,3.46,5.42,6.7,5.22l6.7-.43ZM1419.17,748.91l-1.74-4.26c-.38-.93-3.51-.97-4.77-.93-.91.03-.86,3.19-.44,3.76l6.95,1.44ZM1419.99,777.69c3.68-1.98,5.64-7.85,5.32-12.36-6.22.51-11.54.45-17.8-.24-1.48,3.66-.15,7.1,1.95,10.11,2.35,3.38,5.45,5.23,10.53,2.49ZM1346.79,766.36c.85,2.49,2.74,4.91,4.58,4.61,2.1-.33,4.07-1.43,6.44-3.52-4.31-3.62-4.02-.13-11.02-1.1Z"/>
    <path class="cls-1" d="M337.53,526.49l-2.67,19.61c-2.55,18.69-8.98,33.83-12.76,50.85-2.64,11.88-5.51,23.38-9.31,35.19l-11.64,36.18-4.77,15.15-11.4,36.72c-5.42,17.47-14.26,32.13-27.07,44.88-9.01,8.97-19.17,14.7-31.12,19-5.64,2.03-11.12,2.62-17.31,2.86-15.17.59-8.19,4.1-21.21,2.27l-9.6-1.35c-6.96,5.14-28.59,6.06-33.19-.98l-5.75.86c1.3-9.41,1.72-18.29-1.15-27.16-2.43-7.5-1.39-11.58-2.95-11.49l-3.62.2c-1.36.08-1.46-3.57-2.18-4.69l-4.27-6.73-1.4-2.22c-.31-.5-2.76.6-2.62,1.17,2.11,8.64,5.35,15.74,4.77,21.5-.72,7.08,2.54,13.29,4.57,19.95,1.1,3.62,1.85,6.93,3.75,10.47.87,1.62,1.25,4.31.18,5.44-1.15,1.22-5.2,2.01-5.66.5-1.57-5.15-2.79-9.84-5.8-13.61-6.81-8.53-1.42-11.93-5.12-23.9-5.68-18.38-.78-9.5-3.82-28-1.33-8.06,4.36-13.83-5.37-29.63l-19.02-9.71c4.62,7.62,17.87,25.9,12.28,32.16-1.27,1.42-11.76-1.77-14.17-3.05-2.93-1.56-1.7-5.43-2.87-7.82-2.95-6.01-2.58-11.2-2.11-17.67-.76-6.24-10.45-8.87-15.88-10.07-6.91-4.45-15.22-8.21-13.34-16.53,1.76-7.78,16.67-10.59,25.31-5.16l4.4-15.14c.9-3.08,1.86-10.39-.85-12.62l-15.78-7.52c-1.87,3.57-5.72,6.53-8.73,3.41-3.49-3.61,4.33-7.64-.88-18.09l-21.72,4.47c-2.99.61-8.6-.95-8.82-4.43-.44-7.02.81-14.63,3.84-20.92,2.64-5.49,11.05-14.14,9.82-19.61-4.5-5.97-10.42-12-10.18-19.33.34-10.41,1.08-20.7,6.71-29.85-8.24-1-16.37-1.5-21.51-8.08-5.55-7.11-3.25-17.52-7.95-23.15l4.07-3.86c.81-.76,1.92-1.72,2.59-2.15,2.42-1.55,2.47,6.33,2.92,6.26,10-1.42,6.54-3.07,17.6-1.44,13.64,2.01,17.14-.34,23.12,7.36,2.74,3.53,4.13,7.49,3.04,12.28,5.72-1.77,11.69-2.58,14.74,1.44l-.7,2.92c-.16.69,2.17,1.49,2.93,1.33,9.72-2.05,21.78-3.41,31.15-2.94,6.63,7.35-5.9,3.7-7.77,24.05-.25,2.77.09,4.71,2.54,7.04,3.12,2.96,8.68,3.08,13.69,2.48.36-14.62-3.52-12.29-.71-26.16,1.04-5.11,3.98-8.39,10.01-8.59,3.44-.11,7.52.52,10.45,2.42,6.8,4.43,7.48-.57,19.25-1.14l11.79-.57c2.78,2.75,5.76,8.97,5.21,13.2l-1.31,10.06c-.36,2.76-4.21,7.99-3.04,10.61,3.6,8.07,11.33,16.91,10.23,27.4-1.76,16.73-9.01,15.44-8.04,21.93.09.6,2.39,1.73,2.72,1.25l2.11-3.14,6.58,3.02c3.94,1.81,2.94,7.63,2.02,10.99l-.97,3.53c-.19.69-2.63-.33-2.78-.34l-1.56,11.56c-.43,3.2-2.82,6.09-3.78,8.9l-3.41,9.89c2.83-.39,5.7-.76,8.09.12,4.75,1.75,3.53,8.43,6.63,11.61l2.36-5.59-3.46-18.17c6.24-7.15-7.75-8.53,10.15-20.6-7.38-3.25-8.51-12.27-4.04-18.45,1.01-1.4,2.61-3.01,4.05-4.44,7-19.46,13.62-11.27,17-20.6l6.5-17.97c1.04-2.88,1.87-4.33,3.33-7.12l13.01-24.82c4.77-9.11,12.23-16.42,22.73-18.36,7.94-.09,13.12,4.59,14.81,12.31,1.38,6.32-9.48,9.96-7.95,14.05,3.2-1.79,5.9-3.34,8.13-5.03,8.23-6.26,9.24-15.55,4.58-23.97-1.22-2.19-1.2-6.6-2.91-9.13-3.45-5.09-5.73-13.01-1.74-18.28l5.81-7.67c.36-.48,2.88-.3,2.97.3s.57,2.45.98,2.88l6.67,6.93c4.02,4.18,4.6,7.95,5.47,13.45l7.75,10.8c1.72-1.44,6.75-2.61,7.85-.62,6.57,11.88-8.75,21.04.42,23.66,2.25.64,4.59-.49,6.48-2.13l1.95-1.68c.45-.39,2.69-.03,2.66.57-.04.8-.53,2.95-1.05,3.65-5.87,7.79-15.71,1.59-20.83,1.19,3.7,17.86-1.56,9.88-1.14,19.49.44,10.04-8.17,22.28-13.22,17.06-3.42-3.53-4.38-11.72-3.39-16.57,2.83-13.98-.07-10.85,4.25-21.67l1.33-3.33c.29-.73-.98-2.08-1.72-2.36-.93-.35-3.53.51-3.99,1.5-5.45,11.65-8.29,9.62-19.99,15.12-6.06,2.85-11.42,6.7-18.2,8.52-7.24,13.33-12.82,27-17.08,41.95-1.42,4.97,6.41,17.05-1.69,29.34l-8.99,5.56,6.39,8.53c1.75,2.34,3.45,5.77,2.02,8.58-3.75,7.33-14.26-2.09-14.65,1.62l-4.62,18c4.95,2.53,7.09,9.83,3.82,14.7-1.27,1.89-4.81,2.81-7.6,3.3-3.41,4.21-9.25,9.84-12.71,13.93-1.94,2.29-.87,9.55-6.08,10.1-1.68.18-4.19-1.08-5.07-2.36-.77-1.12-.23-3.93-.16-5.75.37-9.25,1.8-18.13,5.14-26.43l-.79-8.46c-.14-1.47-3.24-4.2-4.64-3.75-10.18,3.26-8.35,8.67-15.44,9.82-2.15.35-2.06-4.55-.66-5.56l5.42-3.86c2.98-16.49,10.65-26.5,14.15-43.29-2.54-2.67-6.98-4.79-10.9-4.19-6.49,7.73,1.16,12.38-11.29,17.86-1.18.52-3.57,1.04-4.77.87s-2.27-3.28-1.99-4.56c.27-1.23.98-3.16,1.76-3.22.98-.06,2.99.92,3.65,1.63l1.35,1.43c.27.29,1.82-.27,1.61-.62-.31-.54-1.01-1.61-1.41-2.05l-2.63-2.88c2.1-3.84,6.27-6.59,8.3-9.85,3.39-5.43,6.48-11.98,8.92-18.07,1.37-3.44,1.49-11.46-.3-14.61l-6.69-11.77c-3.6,3.34-6.12,15.08-15.37,10.84.77-18.33,10.43-12.35,14.02-21.92,2.9-7.74,4.46-15.43,1.27-23.61-2.32-.34-5.82-.24-8.51.16l-12.5,1.89c2.87,6.2,3.4,13.69-2.36,19.45-3.45,3.45-7.42,5.44-12.07,3.63,0-8.27,1.38-14.83,5.46-22.16-2.72-2.6-9.3-6.66-13.27-3.12-3.59,3.2-3.84,10.77-2.67,15.22,1.03,3.88.49,9.3,2.95,12.12,1.75,2.01,5.27,3.08,3.49,6.44l-18.91-.16c-3.95-.03-8.29-4.02-11.21-6.53l-9.11-.72c-13.09-8.33-6.08.11-19.76-12.53-1.36-2.42-1.2-8.81-.12-11.47l2.48-6.09-10.72.94c-1.65,1.54-3.98,1.57-5.81,2.3l-10,3.98-7.22,17.78c-.91,2.24-.41,6.76,1.37,7.61l16.38-6.2,7.08-3.14c.37,1.86.24,3.84,0,6.69,5.26-2.64,11.14-3.59,16.93-1.18,3.74,1.55,2.38,6.69,1.17,9.71-5.58,13.92-7.93,8.17-14.13,20.77,4.6.13,10.99,2.98,11.68,8.12,1.21,9.11-4.04,16.47-10.31,23.58l6.9.17c1.77.63,4.4,2.15,5.21,3.51.91,1.53.27,6-.83,7.53l-5.83,8.07,10.48,5.63c8.49,4.56,8.18,14.77,4.77,22.67-2.05,4.76-3.57,9.68-5.15,14.32,4.53,5.81,6.99,11.17,8.35,18.34,10.75,8.46,18.89,5.69,24.5,16.34,4.69,8.9,6.57,19.2,3.66,30.43,6.27,0,10.58,3.57,12.6,9.45,1.43,3.23,6.54,5.95,8.32,9.25,3.29,6.1,4.51,13.38,6.08,20.08l16.43-.77c3.74-.18,7.38-.68,10.97-.09l11.28,1.84c4.91.8,11.03-.69,16.15-.91,9.88-.43,19.28-1.26,27.98-6,8.16-4.44,15.49-9.22,21.26-17.09,5.66-7.73,7.43-17.64,10.78-26.97l27.71-77.05,8.64-24.36c5.11-14.42,3.09-13.65,7.29-27.44l5.76-18.93,6.39-24.81,2.2-13.89c.54-3.39.6-8.09,2.28-10.75,2.59-4.09,3.47-8.51.02-12.04,1.91-1.68,3.48-3.3,5.22-5.33,4.06-.23,10.03,2.69,12.67,6.82l-1.73,15.05ZM279.37,483.07c.91-5.83.44-11.1-1.5-16.92-4.29,5.75-2.89,11.85,1.5,16.92ZM291.26,487.87l-2.19-12.25-5.38-4.34-.15,25.03,6.53,5.55c.85-4.79,1.98-9.57,1.19-13.99ZM55.58,508.26c2.54-.48.37-5.12-1-6.18-11.54-8.96-1.35-4.03-21.51-7.48-2.24-.38-4.44-.42-6.88-.03l8.95,8.27,9.4.31,4.1,5.41c2.18-.08,4.93.08,6.93-.3ZM308.48,504.9l.08-8.97-5.66.6c4.69,4.59,3.33.28,3.96,10.55.02.34,1.61-1.77,1.61-2.18ZM30.75,511.77c1.17-3.05,1.07-6.36-1.82-8.16l-10.69-6.67c-.29-.18-2.87.25-2.58.43s1.49,1.22,1.68,1.56l7.48,13.63c2.07,3.77,8.06,4.66,9.77,1.99-1.27-.5-3.8-1.8-3.83-2.78ZM252.53,521.4l4.92-2.53c-.14-14.18,5.07-10.43,6.48-19.05l-11.55,1.52c-.18,3.83.26,5.92,1.05,8.71l-.91,11.34ZM287.61,549.96c6.7.8,5.97-4.03,7.39-7.89,6.1-16.57-.3-24.85,1.48-29.74.19-.53-2.73-.49-3.26-.24-2.23,1.05-3.5,4.85-3.63,8.02-.06,1.36-3.22,10.73-2.7,18.66l.73,11.2ZM89.9,530c7.48,3.6,10.86-7.29,13.26-13.67-7.9-1.24-14.16.49-21.82,2.16l-8.45,1.85c-2.06,6.54,10.61,10.87,17.01,9.66ZM143.8,525.57c-.19-.93-1.99-2.99-2.75-2.85s-1.97,1.7-2.08,2.58l-1.31,10.52c3.26-1.93,7.04-5.81,6.13-10.25ZM251.62,528.79l5.92-3.4-1.84-1.44-6.71,1.34-3.22,7.96c2.32-1.82,4.04-3.42,5.84-4.46ZM94.95,535.42l-14-2.09c-.48,3.52,14.74,9.63,14,2.09ZM69.19,559.48c3.22-4.66,7.54-8.16,6.37-14.64-6-.08-12.59,1.02-17.73,4.19l-3.57,11.38c-.96,3.05-.97,6.93-1.68,11.22,12.1-1.08,11.45-4.7,16.6-12.15ZM44.34,567.42c1.92-9.4,3.13,1.03,8.59-16.22-6.69.94-11.48,1.08-19.22.78-.93,2.04,6.78,14.64,6.79,14.64l3.84.8ZM201.07,599.96c1.12-1.41,1.14-3.34,1.62-4.93l6.44-21.24c-2.41.55-5.29,2.12-5.9,3.45l-2.81,6.17c-.63,1.38-.62,4.83-.45,6.45l1.1,10.1ZM63.17,601.74c6.16-6.67,9.59-12.63,10.13-20.51.42-6.12-11.04-7.28-12.66-5.68l-8,7.88,6.29,5.97,4.24,12.34ZM57.61,605.97c.43-6.24.15-12.11-3.73-15.04l-5.84-4.41c-2.3-1.74-3.34-2.95-5.67-6.31-2.43,4.37-15.83,28.2-9.21,30.41,3.33,1.26,20.32-3.15,24.45-4.65ZM196.76,591.59c.03-.55-1.35-2.39-1.62-2.8-1.75-2.66-2.81,14.59,1.07,14.53l.55-11.73ZM219.79,605.14c6.81-4.07,6.83-11.48,4.09-16.47l-4.09,16.47ZM67.69,619.1c3.16-2.46,5.79-5.48,7.61-9.34-3.81-2.66-7.76-2.3-11.51-.67l.87,5.89c.18,1.22,1.8,3.45,3.03,4.12ZM193.64,624.34c2.06-4.92,4.31-9.02,3.88-13.39-7.88,3.83-10.14,11.35-6.22,18.98l2.35-5.59ZM221.73,625.54l-5.93-9.83c-1.34,2.78-2.73,7.36-1.88,9.52,1.18,2.99,7.55,3.76,7.81.31ZM202.69,661.76c4.77-.48,5.23-6.13,2.46-8.96-1.93,1.82-4.3,6.89-2.46,8.96ZM75.53,679.92l.12-13.66-5.62-3.13c-2.87-1.6-8.41,2.64-10.31,4.39-.87.81.13,4.8,1.22,5.37,4.07,2.12,10.02,4.97,14.58,7.03ZM85.37,680.04l-4.33-8.61c-.47,4.36,0,7.34.76,10.35l3.57-1.75ZM96.8,715.97c.66-3.94-3.96-14.17-7.63-16.02-2.7-.47-.57,15.83,7.63,16.02Z"/>
    <path class="cls-1" d="M966.12,568.18c2.16,9.87-.79,17.22-1.42,25.87l-1.5,20.61c-.75,10.32-4.33,19.63-7.54,29.49-3.72,11.38-11.94,18.76-21.72,25.64,3.35,11.44,8.28,22.14,13.5,32.67l4.73,9.53,7.53,15.38c2.79,5.7,5.09,11.14,6.68,17.36,1.78,6.95.12,20.87-6,25.14-5.3,3.7-11.56,5.27-17.51,7.63-14.73,5.84-26.87,6.29-42.79,4.45-4.17-.48-9.66.59-13.54-.58l-17.51-5.28c-4.96-1.49-8.43-3.54-12.09-7.08-3.37-3.25-6.8-6.54-9-10.94l-9.92-19.8-8.41-19.46c-2.7-6.24-4.97-11.4-9.71-16.65-4.22-4.68-15.13-12.02-18.6-11.09-5.25,1.41-4.33,12.38-4.04,13.67l5.98,26.03c3.22,14.02,4.07,27.64-4.41,39.28-4.45,6.11-11.91,6.46-18.29,7.93-10.57,2.42-20.31,3.84-30.96,4.2-2.48.08-5.24.35-7.58.01l-14.76-2.1-6.24-.82-11.73-2.2c-15.64-2.93-6.26-3.28-12.49-5.57-2.91-1.07-.57,2.16-7.14,3.46-1.04.21-1.84-3.28-.79-3.66,1.83-.67,5.23-2.07,6.18-3.69,1.14-1.95,1.5-5.86,1.07-8.01-3.69,3.55-4.14,8.11-9.65,9.09,2.14-5.19,7.44-10.87,11.33-15.16.73-.8,1.11-4.55.09-4.78-1.02-.23-3.72.33-4.38,1.19l-7.17,9.35c-2.52-1.97-3.03-8.03-1.06-9.36l6.02-4.07c5.49-3.72,5.7-9.96,4.11-16.17l-.9-3.52c-.67-2.62-9.59,7.76-16.17-1.28l3.48-6.09c1.62-2.83,7.57-2.36,10.02-.82l3.08,1.94c.79.5,2.25-2.04,3.06-2.64,3.38-2.53,4.46-6.2,6.12-10.21,4.75-11.41,1.07-12.09.17-20.86-.33-3.22-3.9,2.35-8.82,5.51l-6.78,4.35c-2.35,1.51-3.52,5.15-7.5,3.46l15.25-28.68,4.17-7.85c3.5-6.59,4.68-12,2.1-19.75-1.35-4.06-6.68-6.62-11.44-4.21l-2.77-3.42c-9.66-.82-15.32-18.61-13.88-24.7,1.94-8.2,7.33-15.86,13.79-20.91,1.31-1.02,4.28-3.86,2.79-4.37l-5.67-1.32c-5.93-1.38-8.71-2.77-10.09-8.89-.59-2.59-3.66-7.11-1.53-9.92,3.82-5.01,5.36-10.24,5.98-16.34.64-6.26,5.53-29.23-7.45-27.92-8.02-12.66-19.65-16.6-22.48-30.82-.91-4.57-.41-19.96.54-20.79.87-.76,4.66-.57,4.7.68l.33,10.83c4.31-2.33,8.04-.41,12.02.45,14.06,3.03,20.71,13.55,22.24,27.34,1.91-4.6,1.75-7.56,9.21-7.35-7.46,7.93-11.13,17-9.31,27.37.59,3.37-.72,5.95-2.43,8.83-3.07,5.18-2.02,12-3.44,17.69l-1.57,6.32c14.5,4.74,3.65,7.3,15.73,16.05,1.72,1.25-1.64,5.64-2.4,7.15.38,2.21.19,7.21-2.1,8.69-.71.46-3.63-.05-4.1.63-.59.84-1.04,3.15-1.73,4-4.23,5.19-10.29,12.18-7.39,19.73,7.41,19.27,9.27,13.53,24.11,17.92,3.13,2.14,3.35,8.21,4.25,11.62,1.45,5.49.59,9.41-2.58,14.01-6.47,9.39.36,2.86-9.2,16.67-2.47,3.57-4.06,6.67-5.35,10.74,8.08-.92,4.45-5.63,12.49-5.45,9.12.21,11.58,25.9-1.48,35.29-2.02,1.45-4.28,3.65-5.07,5.77,3.6,5.83,3.69,12.95,1.05,18.48,2.7,1.26,4.07,4.54,4.64,6.89,15.07,3.33,1.99,5.56,17.56,9.48,16.91,4.26,45.86,4.62,61.46-3.89,2.29-4,1.21-9.43,1.38-13.62.39-9.99-1.19-17.96-5.92-26.58-.53-6.18-.77-14.76.38-20.93,1.3-7.03,5.99-14.01,11.94-16.73,20.93-9.55,19.49-.26,33.21.56,8.26,13.03,14.73,12.63,21.81,29.84,4.22,10.26,8.9,19.93,14.17,29.83,5.22,9.8,7.64,18.62,21.54,21.65,4.3.94,8.91,2.77,13.19,2.66l34.35-.87c3.43-.09,9.03-2.3,12.04-3.58,6.76-2.87,2.77-17.37,1-20.93l-8.4-16.93c-3.21-6.47-6.28-12.66-9.7-19.16l-3.7-7.03-8.02-20.13c-2.28-5.72-1.32-10.11,3.59-14.24l8.51-7.17c7-5.9,9.99-12.84,13.33-20.87,5.82-13.98,7.62-28.27,7.61-43.47,0-12.55-2.41-24-10.01-34.25-3.12-4.21-6.34-9.08-10.61-12.11l-11.76-8.38-10.35-6.56-16.41-8.45c-6.08-15.03-13.03-10.9-10.63-19.72l12.49,10.18-.95-6.64c7.26-3.18,14.13.56,20.77,3.06,13.54,5.09,28.8,15.53,37.88,26.36l8.7,10.37c6.12,7.29,10.48,16.72,12.6,26.43ZM674.79,515.48c3.08-21.64-5.98-16.38-16.39-32.21l-1.68,4.03c3.18,4.52,5.11,8.84,7.51,14.08-.75-1.64,9.22,15.47,10.56,14.1ZM679.7,512.98l3.39,2.98c1.86-9.15.6-19.72-6.62-26.07-2.8-2.46-8.05-4-11.61-4.59,3.37,4.56,8.91,5.78,10.81,10.14l2.84,6.53c1.3,2.99,1.26,6.99,1.18,11.01ZM692.34,577.9c-5.38-2.09-3.8-7.68-5.53-7.63l-3.12.09c-1.29.04-4.6-2.33-5.41-1.34l-2.8,3.4c6.11,4.35,7.39,10.43,12.84,9.14,1.5-.36,3.95-2.97,4.03-3.65ZM689.67,723.41c-1.82-2.76-4.16-5-5-4.1l-3.61,3.87c4.23.55,5.83.58,8.62.23Z"/>
    <path class="cls-1" d="M1101.9,497.26l-8.46,5.11c-3.25,1.96-7.88-1.93-10-5.33-6.01-.65-8.12,5.08-10.98,1.23l-1.23,3.32c-.27.73-2.61-.15-3.34.07l-5.39,1.62c-.39.12-.77,2.06-.37,2.19l2.77.93c.08-.04-2.16.98-3.01,1.36s-2.1-1.84-2.15-2.35l-5.9,3.27c-5.7,3.16-12.77,1.19-15.05-3.96-.37-.84-2.53-3.03-3.1-2.48l-2.44,2.36,3.88.8c-.84-.17-.29,11.37-9.89,10.53-5.45-.48-10.29-1.94-14.89-5.09,6.72,21.55,9.67,8.1-.38,31.05-3.54,1.02-8,7.71-3.97,9.87,4.8,2.57,7.96,4.28,9.41,10.26,1.09,4.5,1.32,10.72-4.29,12.99-2.21-.31-4.29-4.07-6.05-6.83-2.09,10.84-6.81,19.95-8.16,31.54l-1.18,10.15c-.82,7.03,0,13.09.91,20.28.55,4.4-.58,9.3,1.96,13.46l-.39,4.9c3.63.39,8.59,1.87,10.05,4.87,6.26,12.83,1.79,10.22,10.4,20.01,3.66,4.16.68,11.36-2.82,15.23-6.94,7.67,1.21,6.21-1.09,16.76-2.62,2.82-6.51,5.19-9.39,7.11.13.63.33,1.56.36,1.87.05.46-.9.91-1.59,1.22l-2.44,1.09c-.62.28-.05,2.2-.2,2.87-6.8,7.79-.1,7.56-6.31,17.93-5.76-6.96,2.74-19.63,7.12-24.6l7.44-8.43c.71-.8.02-3.76-.73-4.76-.62-.82-2.72-.69-3.9.17-.84.6-1.18,2.04-1.52,3.29-3.58,2.56-9.59,2.67-12.03-1.8-2.51-4.6-3.73-10.18-2.54-15.71,3.01-1.73,17.71-1.13,19.73,3.41,1.66-.64,4.29-3.9,5.56-6.09,2.53-4.34,2.29-9.33-2.59-11.87-2.64-1.38-3.01-4.21-3.96-7.01l-3.23-9.58-7.1-2.9-.45,7.11c-6.46-2.84-1.43,4.79-8.62,1.56-1.71-.77-2.2-2.39-1.04-4.91.6-1.31,2.57-1.15,5.24-1.26l-3.87-2.39,5.29-4.03-1.01-13.88c-.25-3.48-2.74-8.44-2.59-11.97.73-17.04,3.83-28.46,8.19-44.5,1.27-4.67,3.26-9.39,2.28-14.2l-2.47-12.14c-2.76-2.77-5.63-4.51-5.46-8.96l.39-10.16c4.95-.46,8.31,4.26,9.17,9.27l9.04-12.88c2.2-3.13-3.1-8.48-5.2-10.14,1.83-5.68-.24-10.89-4.26-15.13l-8.18-8.62,2.5-.7c.46-.13.82-.87.91-1.34s-1.26-1.75-1.59-1.4l-1.8,1.94-7.12-8.58c-2.98-3.59-7.36-8.22-7.49-12.88.06-.92,3.18-1.5,3.76-.83l2.63,3.01c4.06,4.64,11,13.9,13.97,19.49,1.43,2.68,6.33,5.21,8.44,7.82,2.44,3.01,4.42,4.86,7.95,6.31,3.48,1.43,7.26,3.17,11.25,2.68,1.73-.21,1.74-4.93,1.62-6.71l-.87-12.72c-.06-.91,2.08-3.91,2.83-3.45,5.96,3.65,9.36,8.86,8.17,16.67l6.15.77c8.65,1.08,15.11-5.72,22.5-8.72,3.12-1.26,8.03-1.61,11.02-3.89.82-.62,3.87-1.43,4.63-.77,2.69,2.34,3.68,5.65,5.61,5.88,2.31.27,11.11-2.86,10.12-5.47-2.75-2.63-5.93-7.68-7.04-9.92-.41-.82,1.5-2.7,2.29-3.43,5-4.65,13.91-2.44,16.31,3.68-5.93,16.1.98,7.33,1.84,23.21,2.67-.75,6.89-2.63,10.27-4.52-3.66-3.92-4.72-6.68-2.52-10.83l-3.61-8.17c-3.16-7.16-4.33-5.52-6.77-16.5,1.66-.42,4.04-.55,5.91-.53,2.11-4.16,6.09-8.59,11.16-9.47,7.58,2.83,7.3,11.3,8.76,18.77,2.38,12.2,1.28,12.08-2.88,25.53,5.84-.79,11.57-4.94,17.08-3.92,8.03,1.48,10.93,13.43,19.45,8.91,4.82-6.23,10.54-13.03,17.88-14.97l13.62,5.82c2.69,1.15,5.52,3.04,6.55,5.17,3.24,6.72-5.53,12.77-5.4,12.62l-4.44,4.95-1.76-1.59c-.34-.31-.36.21-.84,2.67l11.8-.19c-.96-9.45,2.62-17.84,11.08-20.58,2.56,5.93,7.9,2.39,10.77,12.65.93,3.33,4.94,7.79,7.8,9.42,8.86,5.06,9.32,8.51,13.52,14.95l9.44,14.49c7.03,10.79,10.73,22.68,15.09,34.81,1.58,4.39,2.07,9.39,3.12,14.13,1.95,8.85,2.53,17.12,2.86,26.28.38,10.52.5,13.14-1.71,24.31l-3.51,17.75c-.56,2.82-.72,6.68-1.28,8.94l-3.63,14.48c-2.92,11.64-11.19,17.9-15.59,25.84s-9.91,12.04-17.5,16.98c-5.36,3.48-1.56,6.01-23.58,15.41-20.17,8.61-5.65,4.84-30.35,10.02l-12.08,2.53-14.01,2.89c-7.33,1.51-14.55,1.48-22.03,2.11-6.84.57-13.11,1-20.02.96-8.43-.05-15.1,3.38-31.07,3.58-3.2.04-5.92,1.35-9.19,1.59l-13.17.97c-4.75.35-7.96,1.42-12.71.81-13.82-1.76-9.86.14-21.25-.94l-30.07-2.84-2.33-5.42c-1.41-.58-3.66-1.64-3.35-2.55s1.66-2.68,2.48-3.17l1.88-1.13c.53-.32-1.66-1.01-2.28-1.49-3.77-2.91-8.64-8.64-9.21-13.76-.52-4.59,4.1-9.17,7.05-12.03,2.52,3.17-6.61,13.25-1.35,17.51l6.81,5.52,16.63-.59c.72-2.99,1.75-3.37,2.02-1.05l-.85,3.52c4.52.09,8.72-.11,12.98.42,7.77.96,15.36.12,22.98.26,9.08.16,17.01.63,26.18-1.25,16.67-3.42,11.21.13,28.93-2.75,4.76-.77,9.97-1.03,14.78-1.35l17.02-1.12,15.55-1.55c9.75-.97,19.15-2.69,28.77-5.11l8.05-2.03c8.44-2.13,16.94-4.68,23.82-10.27,14.01-11.39,16.92-10,28.23-26.66l6.54-9.63c3.51-5.18,4.24-10.5,5.51-16.73,1.74-8.57,4.42-17.13,5.53-25.93l1.46-11.54c1.45-11.45.28-22.86-1.57-34.66-2.83-17.98-9.88-35.04-18.72-50.9-1.34-2.4-4.21-5.18-5.31-7.56-3.66-7.92-9.06-12.54-16.07-17.31-4.67-3.18-9.82-7.97-16.49-5.42-4.71,1.8-11.96.52-13.29-5.76-.42-5.64,14.69-8.61,12.58-15.26-1.26-3.98-7.82-4.3-10.7-6.27-3.99-2.73-7.65-3.36-11.26.48-2.68,2.85-5.19,5.89-7.75,9.29l-5.02,3.58c-7.8-.7-14.52-5.11-19.63-10.88l-11.21,2.84c9.95.47,16.53,15.94,11.7,27.4-2.84,6.74-11.26,7.55-17.36,3.8-3.44-2.11-7.66-3.58-10.08-7.03-1.64-2.34-1.97-8.62-.27-10.79,1.48-1.9,3.39-4.14,4.94-6.45.82-1.22-2.05-4.06-3.42-3.87-1.89.27-3.02,1.75-3.92,4.2l-10.18.35-1.66-10.21c-.29-1.8-1.98-4.49-3.35-6.64l-3.5,3.93ZM1129.33,485.95c.04,1.02,1.93,3.14,2.77,2.56.7-.48,2.5-2.93,2.31-3.96l-3.79-20.52c-.19-1.05-4.05-2.88-4.66-2.09l-2.06,2.68c-1.6,1.19-3.62,2.82-5.2,4.32,5.01,8.97,10.24,6.93,10.62,17ZM1105.5,487.83c1.46.16,1.9-3.82,1.52-5.32s-4.16-1.95-5.86-1.11c-.98.49-.5,3.29-.09,4.3s2.61,1.94,4.43,2.14ZM1144.95,529.55c4.7-5.43,3.99-10.66.54-16.06-1.21-1.89-3.01-5.59-4.98-5.44-3.24.25-4.35.22-6.33-.74l-1.96,7.7c-5.36,1.19-6.25,6.02-4.69,10.74l12.14,6.04c1.51.75,4.01-.78,5.28-2.25ZM1013.36,565.65c-.67-2.51-3.53-7.38-5.34-9.03-.91,1.85-2.08,3.85-1.59,4.59l2.13,3.2,1.89,2.77c.34.5,3.06-.95,2.91-1.53ZM1007.99,693.85c-.3-3.95-5.44-4.22-7.75-4.14l1.76-2.94-7.89,2.38c.72,4.14,2.45,9.06,5.57,11.86,2.98-.82,8.51-4.6,8.32-7.16Z"/>
    <path class="cls-1" d="M1119.31,695.16c-3.76,1.21-7.06-1.56-9.42-1.54-6.62.05-10.69-1.34-15.27-6.54-2.62-2.97-4.61-4.7-5.84-9.55-1.59.17-4.09,2.17-5.64,3.81-5.25-.22-11.63-1.44-16.73-3.88l-5.24-6.23c2.25-8.5,10.78-13.42,17.95-18.46,3.31-2.32,6.47-3.72,10.93-4.3l2.8-20.88,7.24-11.65-8.6,3.76c-2.14.94-6.47,3.44-8.48,1.6l-6.52-5.98.57-12.31c-9.55-14.84-5.83-20.48,4.36-33.58,1.94-2.5,3.98-5.01,5.97-7.04,3.38-3.44,8.63-2.41,10.74.86l13.03.92,12.95,1.04,20.61,2.39c4.71.55,16.56,6.58,20.57,10.95,8.06,8.8,9.9,20.51,12.63,31.48,3.62,14.54,3.09,27.72,3.22,42.98.01,1.64-1.14,4.5-1.47,6.31-1.52,8.31-2.01,20.99-11.53,25.56l-18.17,8.72c-2.21,1.06-3.99,8.1-7.67,4.8-4.01-3.59-7.93-4.16-13.52-3.16-2.2.4-6.78-.94-9.46-.08ZM1098.31,582.66c-1.61-1.09-6.93-4.45-6.9-6.8l.11-11.54c-8.71,8.33-19.14,22.53-11.84,33.51,10.92-6.4,10.05-8.53,18.63-15.17ZM1092.34,668.37c-.93,3.23.11,11.45,4.42,10.7,11.52-2.02,4.25.09,21.26,1.81,2.62-4.21,5.3-8.2,7.44-12.68,1.54-3.22,1.24-9.27,4.1-11.7,2.99-.83,7.18,2.45,7.24,5.53.06,2.5,3.21,6.17,4.83,5.02,5.93-4.22,12.21-4.72,19.88-4.07,3.31-17.36,2.36-57.85-9.33-71.38-2.03-2.35-7.38-3.28-10.32-4.51-9.55-4.01-29.91-5.62-40.9-4.94l10.45,3.55c1.2.41,3.44,1.52,2.87,2.35l-2.09,3.03c-2.23,3.23-10.89,10.49-14.63,7.88-.2,1.19-.28,2.97-1.05,3.01l-3.69.19-10.31,1.42c-.6,3.43-1.36,9.93,1.69,12.14,7.37,5.35,17.49-10.59,21.46-2.54-2.88,11.72-9.87,9.93-8.56,27.13-1.09.69-3.13,1.56-2.97,2.29l.73,3.43c.74,3.44.12,6.37-3.78,7.41,2.51,4.09,2.82,9.46,1.23,14.94ZM1088.13,597.64c6.55,3.03,21.58-7.32,19.06-8.1l-2.91-.9c-1.19-.37-3.67-1.13-3.88-.23-.17.72-.76,3.32-.83,3.57l-4.13-1.93c-.77-.36-1.95,1.9-2.73,2.24-1.33.59-3.43,1.04-3.68,1.98l-.9,3.37ZM1082.58,674.59c1.22-2.4,3.04-6.06,3.71-8.02l-.28-12c-10.37,5.93-9.51,5.27-18.63,13.9-2.96,3.63,13.07,10.3,15.19,6.12ZM1130.41,679.76l5.99-9.51-5.87-6.57-3.64,10.67c-.5,1.48-4.2,3.83-3.91,5.4.56,3.01,6.02,2.23,7.43,0ZM1158.22,667.81c-5.3-.17-11.02.65-15.6,2.55-.99,1.71-.16,6.59,1.37,7.56,2.68.25,16.42-6.06,14.23-10.1Z"/>
    <path class="cls-1" d="M781.18,602.55l3.94-4.15c-2.3-4.07-2.51-19.84.1-17.1-.03-.03-.7-.92-1-.9l-2.93.2c-.03.06,1-2.31,1.57-3.6.48-1.08,2.9-.15,4.02.35l2.83-1.25c.63-.28,1.57,1.83,1.86,2.62l1.96,5.41,4.58-5.01-1.41-6.69-8.3.37c-1.64.07-2.8-.2-5.73-.84l-.66,4.01-1.67-1.68c-.36-.36-1.35.05-2.86.41-.75-4.24.34-10.84,4.37-13.98,6.34-4.94,13.78,1.99,20.38,2.1l24.03.38c5.1.08,10.69,2.8,15.75,3.85,8.31,1.73,25.52,9.4,28.26,16.61,2.45,6.46.85,14.9-.87,21.59-.94,3.65-5.9,6.15-8.56,8.05-7.08,5.06-14.36,6-22.55,7.1-8.75,1.18-17.05,3.26-26.21,3.31-3.04.02-25.26-3.31-28.93-6.99-1.39-3.9-1.99-9.27-1.96-14.18ZM849.11,592l-8.6-3.15-14.62-4.54c-6.09-1.89-13.82-1.69-19.77-2.86-1.21-2.56-1.97-3.87-3.99-6.23l-3.17,11.59c4.31,5.26,5.93,10.21,5.24,17.25l19.04-.95c6.2-.31,12.17-2.38,18.26-3.76,3.98-.9,8.16-2.5,7.61-7.34ZM799.8,604.41c2.28-6.42-.94-11.99-5.35-15.64-.76,6.08,1.41,11.63,5.35,15.64ZM792.83,608.72c3.19-5.48-5.63-10.63-4.2-10.79l-2.28.26,1.83,3.18c.33.57-2.73,1.44-2.72,2.09v9.01s7.38-3.75,7.38-3.75Z"/>
    <path class="cls-1" d="M835.12,512.61c-5.31,1.09-9.67,11.72-12.57,6.86-1.05-1.76,2.1-5.51,3.78-7.44l-11.13.82c-4.67.34-6.14-6.8-7.87-9.67l-9.58.81c2.13-5.16,5.37-2.89,9.24-1.76-1.91-5.46,5.8-13.93,9.69-14.45.94-.13,1.95,1.72,2.55,2.84.55,1.02-2.19,2.97-3.35,3-1.98.05-4.18-.48-4.99.48-.86,1.03-1.87,4.17-1.28,5.26l3.94,7.3c5,1.67,9.6,1.16,14.71.64,13.84-1.41,13.33-3.91,16.59-4.7l12.95-3.12-1.92-2.8-7.56.14c.98-3.19.31-5.45-.28-8.13-.89-4.04,6.91-6.33,9.93-5.1,3.97,1.61,8.16,5.51,7,10.4-6.96,1.04-6.7-10.66-11.84-4.25l5.55,3.82.4,12.1-2.74-3.47c-.97-1.23-4.9,2.34-4.87,2.51l.75,4.15-2.95-1.75-10.08,2.74c1.53,7.74,1.57,13.53-4.23,17.53-4.71,3.25-7.86-1.72-13.01-.96-.57-1.26-.72-4.71-.54-6.47l2.33,4.06c.78,1.36,9.84,1.2,11.62-1.66,1.72-2.76,1.1-6.49-.26-9.74Z"/>
    <path class="cls-1" d="M731.53,525.56c.8-4.71,3.34-8.91-.35-13.18l-6.1,5.41c-5.59,3.14-14.2,3.23-20.34.68-3.7-1.54-5.44-10.42-5.06-13.53.1-.79,3.03-.99,3.2-.22.63,2.86,2.41,8.4,4.43,11.21l12.35-.16-3.7-4.18-3.52-5.81c-1.21-2-3.02-3.89-5.12-4.7l-8.87-3.43c6.36-14.06,11.5-10.99,22.91-11.25l4.04,5.79c-1.96,10.26,1.59,8.4,1.37,16.67,2.1-.42,4.55-.97,5.71-.81,1.35.18,2.54,2.65,3.6,4.26l4.98-6.9c1.11-1.54,4.49-1.73,6.49-.6l-6.58,8.95c-2.36,3.21-1.02,9.67-4.79,12.65-.93.73-4.42.33-4.63-.85ZM723.04,509.5c-1.81-3.15-1.71-5.89.42-8.66l-2.14-5.79-1.53-4.15c-.45-1.23-13.43-2.98-15.56,4.62,4.44,2.37,7.58,5.47,10.56,9l3.7,4.39c.48.57,1.67,2.2,2.27,1.86l2.29-1.27Z"/>
    <path class="cls-1" d="M795.87,503.12l1.34,1.33c.22.22-.93,1.54-1.23,1.65l-7.32,2.57c-.5.18-1.77-1.93-2.24-1.69l-2.68,1.34c-.34.17-1.66.64-2.02.78-.52.2.29-1.67.51-2.5.19-.7-1.19-2.26-1.91-2.25l-4.49.1c-.35-.85.08-4,.53-7.16l-4.3.43c2.49-3.34,2.85-4.35,3.8-7.69,1.49-5.24,10.81-9.1,15.48-7.52,3.15,4.91-1.09,10.88-3.38,14.42l-3.23-2.28c.78-2.85,1.27-5.12,1.53-8.96-3.6,2.6-5.81,4.55-8.79,7.44l2,7.92,2.79-2.49c.49-.44,1.79.19,3.83.69l-3.32,4.2c4.01,2.94,9.18,1.56,13.09-.34Z"/>
    <path class="cls-1" d="M762.03,507.46c-.79-.14-2.98.59-3.24.02l-1.22-2.78c-.3-.69-2.82-1.54-2.47-2.22l1.65-3.22-1.04-4.18c-.21-.08-2,.63-4.27,1.63.03.06-.93-1.66-1.3-2.34-.99-1.82,7.11-7.91,9.11-4.64.38,4.19-1.37,10.44.71,13.44,2.2,3.17,8.39,5.17,11.46,4.25s5.28-1.06,6.61,1.04c-4.31,5.47-11.44,4.25-16-1Z"/>
    <path class="cls-1" d="M1517.97,538.32c-1.93,4.38-10.81-1.86-20.01-2.23-6.52-.26-12.68-.18-19.09.02-4.06.13-8.19,1.25-11.85-.99,2.81-1.76,7.12-1.03,10.02-.49-.45-.08,18.64-1.58,24.48-.2l16.45,3.89Z"/>
  </g>
  <g>
    <path class="cls-1" d="M126.95,229.39c.53-20.37,1.58-14.28,3.72-18.81,2.82-5.96,5.4-12.8,12.72-14.45,11.57,4.41,13.2,11.4,17.2,22.12,2.31,6.2,6.1,11.01,9.37,16.58l8.62,14.69c1.13,1.92,4.39,4.85,6.52,6.29,1.96,1.33,15.5-.31,20.33-3.98,8.75-6.64,13.23-16.98,17.98-26.8,3.42-7.06,8.65-12.26,10.43-16.44,1.91-4.47,4.93-9.83,9.3-11.13,5.13-1.53,8.82.68,10.42,4.79,7.24,18.64,3.48,39.66,3.65,60.71l.12,15.36c.02,2.11-.43,5.93-.16,7.77l1.88,13.35,6.32,4.86c5.11,3.93,11.42,4.25,17.52,4.51l14.71.63c4.47.19,10.01,1.29,14.32.39,12.42-21.45,8.07-20.99,9.91-38.56.59-5.63.25-10.57.09-16.15l-.84-30.4-.98-23-.34-7.64-.59-35.64c-.08-4.55-.65-8.67-.05-13.18l1.58-11.97c.31-2.38.24-6.29.34-9l.88-25.96c.18-5.26-2.23-10.4-7.4-10.33l-.37-9.64c-4.43.25-9.77,7.42-15.34,5.91-6.08-1.66-7.9-15.31-6.31-21.45-12.17-.61-3,9.84-10.38,27.74-.38.93-3.6.96-4.64.49-2.55-5.04-.51-12.78,2.17-17.41l1.34-4.86-2.3-9.55c-.36-1.49-1.55-3.82-2.69-4.02-1.84-.33-3.69,1.33-4.6,3.09-2.99,5.8-6.38,11.32-8.39,17.37-2.2,6.63-5.37,11.26-11.64,14.69-4.34,21.9-7.39,16.36-20.41,26.48-3.85,3-6.43,7.74-8.93,12.04-3.33,5.73-.12,6.91-6.56,16.1-10.26,6.61-6.05,9.03-15.31,20.83-1.06,1.34-2.39,3.07-3.52,3.43-1.32.42-4.47-.44-5.81-1.05l-4.64-2.09c-1.02-.46-2.82,2.75-3.94,3.16-4.42,1.63-15.71,6.66-17.63.13l-3.68-12.5-9.73-3.1c-1.99-4.77.11-8.4,2.33-12.39,1.94-3.48,3.65-6.91,5.88-10.15l4.47-6.51c2.52-3.67,5.17-6.54,8.91-9.38l3.08-4.94c1.72-2.75,2.21-6.35,1.29-9.6l-10.86,9.44c-3.22,2.8-9.09,3.94-13.27,2.64-1.41-.44-1.85-4.87-.54-5.73,8.47-5.58,7.29-7.61,18.18-16.72l6.07-5.08c-.8-13.75-27.97-11.57-30.78-5.94.99,3.48-3.98,9.81-8.25,11.54l.87,4.63c-1.5,2.78-6.02,5.69-9.79,4.52-17.56-5.43-11.73-14.63-17.08-20.97-8.12-9.63-17.77-3.93-28.97-2.89-15.68,1.46-15.56-.68-25.89,1.1-4.1.71-7.75,1.48-10.97,4.32-2.07,1.82-5.77,2.14-7.8,3.31l-8.83,5.07-8.29,4.76.52-4.38c-5.45,1.79-8.84,2.86-13.25,5.6l10.17-.2c-1.87,1.5-3.88,2.98-6,4.25-4.25,2.54-10.04,1.47-12.42-3.95l10.34-6.32c3.67-2.24,8.02-2.25,12.11-3.96l14.38-6.03c2.73-1.14,5.74-.9,8.08-2.13,8.58-4.52,18.03-5.5,27.79-5.27,20.14.47,28.58-8.1,41.71,3.42,3.23,2.84,4.26,7.85,4.39,12.45l3.17,5.56,6.94,2.39c.99.34,3.77.1,4.35-.77,3.23-4.82-9.5-10.83-4.9-23.62,1.08-2.99,4.87-4.59,7.76-4.69,3.79-.13,6.41,1.62,8.86,5,2.42,3.32,3.33.47,15.63.09,5.84-.18,10.85.97,14.94,4.67,7.63,6.9,4.45,19.33,7.19,30.82-2.46,3.89-6.29,9.41-9.73,12.93-1.2,1.22-4.97,2.18-5.97,3.89l-4.54,7.81c-1.2,2.06-2.56,4.13-3.53,6.38l-2.44,5.64c-.7,1.62-4.41,4.99-2.7,6.72,9.48,4.29,21.1,1.22,27.78-6.95,1.28-1.71-2.98-6.34-5.06-5.93-7.08,1.4-6.36,10.69-13.59,13.64.51-6.66,5.3-12.16,10.89-15.09,6.11-3.2,12.77,5.14,12.5,7.58s-2.38,4.59-4.42,5.3c-1.42.49-4,3.34-5.45,3.69l-13.51,3.31c3.67,3.32,2.25,15.17,9.7,12.67,6.04-2.03,19.36-7.52,14.76-16.23l4.63-2.17c-.75-2.83-2.15-5.53-3.59-8.27-3.22-6.13-.15-24.18,7.47-24.38,4.79-.13,7.24,1.44,10.37,6.88l6.57-8.79-9.18-15.79c-.59-1.01,2.34-3.04,2.43-2.72-1.35-1.74-2.17-6.35-1.09-7.17,7.96,1.29,5.18-2.07,10.99-2.31,3.47-.15-1.19,11.28,5.9,13.1,6.87-6.64,4.31-10.73,14.4-19.44l.56-13.62c.11-2.67,2.32-6.49,3.45-9.35,2.77-1.93,8.44,9.96,8.4,9.87l5.17,14.34c2.89-3.19,8.25-12.47,9.21-16.48.55-2.29,2.64-4.32,3.35-5.81.75-1.56.8-5.02,1.98-6.29,3.59-3.88,11.31-2.34,12.55-1.48,3.41,2.38,2.04,8.33,3.02,8.25,4.24-.33,6.6-5.64,10.91-2.02l2.95,18.46c3.18.9,7.92.7,10.37-.75,2.46-16.89-2.29-9.36-1.77-21.67.58-13.68-7.55-11.32,4.5-32.51l5.84-10.26c.79-1.4,2.89-4.26,4.18-3.12,3.96,3.5,1.06,9.95,3.16,13.26,2.6,2.9,5.41,4.86,5.8,9.38.23,2.59,1.73,6.69,1.42,8.97-2.56,18.76,3.07,14.62-1.61,22.98,4.42,3.91,8.33,9.05,8.54,15.45.31,9.49.03,18.84-.29,28.31l-.97,28.87c-.15,4.34-1.01,8.73-.99,12.89l.1,25.92.73,27.53.57,17.31,1.53,48.13c.41,13.01-1.82,24.97-4.2,37.52-.96,5.07,1.33,10.71-3.75,14.99-2.65,2.23-7.45,2.75-11.26,3.51l-9.17,1.83c-5.01,1-9.94.34-15.05-.01l-15.02-1.03-24.85-.46c-6.97-.13-8.35-7.36-9.51-12.66l-4.39-20.03c-1.29-5.87.93-55.89.52-66.23-.14-1.2-3.63.8-3.99,2.09-1.72,6.07-5.15,11-8.19,16.69l-6.96,13.05c-1.64,3.07-6.09,6.07-8.52,8.02-5.74.89-10.6,2.26-15.58,5-7.29,4-23.18,2.95-24.4-1.76l-.63-2.44c-.11-.44-2.28-.91-2.82-1.4-5.33-4.89-9.32-13.16-13.13-19.56-4.86-8.17-9.03-15.44-13.03-24.91-2.48,10.72-1.01,21.45-2.5,32.49l-1.76,12.98-.41,50.55c-.06,7.28-7.18,11.82-13.63,11.23s-10.58.78-16.08,3.09c-6.19,2.6-14.11-.17-20.19,1.06-7.99,1.62-31.42-.61-39.49-5.32l-1.96,16.12-1.78,9.52-1.79,1.79-.38,2.62-.89,6.19-3.9,1.72c-.86,4.7-2.32,8.85-4.66,13.16l-2.43,6.24c-8.43-3.72-12.53-10.45-11.5-19.27.82-6.98-5.96-17.26,3.2-16.74l-1.8,8.56,2.3,1.31c.54.31-1.71,1.94-1.48,2.52l3.09,7.89,5.43-5c5.95-5.48-6.93-10.57-2.16-14.33,3.93-3.1,1.7-5.51,1.53-8.59l-.87-15.37-3.62,10.38-3.41,10.73c-5.14-2.17-.78-6.16-1.12-8.43-.83-5.65.81-8.45,3.53-12.97l7.54-12.53,4.97-7.87c1.18-1.87,1.33-6.74,2.06-9.45-4.21-7.4-3.32-15.83-2.57-23.95,1.41-15.2.82-8.43,12.16-21.03l8.16-9.07c1.27-1.41,2.78-4.6,1.52-5.85l-7.58-7.52c-1.17,1.97-2.2,3.94-3.27,5.12l-10.51,11.7c-2.58.96-8.85,1.47-11.23-.09-4.36-2.86-4.28-9.33-3.58-13.94,8.57-10.41,15.3-10.17,27.4-10.09,5.34.04,7.47-5.91,9.66-9.72,1.48-2.57,3.22-5.61,2.25-8.25-2.14-1.66-3.41,3.88-11.2,7.16-4.72,1.98-11.86.1-16.18-2.71-2.89-1.88-3.31-9.24-1.4-11.59l4.82-5.94,1.49,2.44c.46.76-2.92,1.81-3.09,2.6l.46,7.87c.32,5.43,13.68,5.68,17.63,1.49l5.79-6.14c-1.55-8.67-6.99-15.1-15.56-18.33,5.51-7.53,19.1,6.42,19.08,13.17,1.22-1.22,2.34-2.78,3.24-4.49l4.61-8.76c1.57-2.99,6.6-8.4,2.56-12-3.7-3.3-9.74.79-14.19,1.88-2.92.71-7.23-2.71-8.22-5.09-2.54-6.11,3.77-19.21,7.46-25.73,2.54-4.49,3.78-8.62,4.55-13.72.77-5.06,6.43-7.79,9.75-10.83,7.04-6.47,6.27-8.67,11.9-11.99l2.87-9.55c.7-2.34,1.49-7.51-.44-9.02-11.14-5.85-23.75,11.07-28.86,19.17-8.68,13.77-8.51,7.49-17.8,17.02-.86.88-3.24,2.18-4.4,2.15-1.35-.03-3.63-2.75-3.53-3.46,3.24-2.34,4.4-4.52,5.89-6.71,11.48-9.1,10.47-5.7,20.49-19.34,3.26-4.44-9.53-8.62-6.15-12.38,2.86,6.39,6.19.27,11.33,8.92,5.18-4.09,10.25-8.91,16.54-9.78l9.41-1.31c6.54,6.16,4.09,13.96.11,20.42-2.15,3.48-3.22,7.91-6.07,10.94l-9.4,9.99c-1.36,1.45-4.31,2.64-6.48,3.24-1.61,8.64-5.09,16.94-8.78,25.05l-4.11,9.06c-.85,1.88,1.14,6.41,2.42,8.29l12.86-3.09c1.92-.46,7.1.39,7.45,2.25.44,2.31,1.04,6.69.98,8.71-.73,2.56-2.6,6.1-3.93,8.48l-3.39,6.07c-2.1,3.77-6.95,7.4-7.12,12.38-.13,3.83,2.82,10,.2,13.35-3.29,4.2-7.32,8.25-10.94,12.38,4.94,4.8,8.74,8.95,11.48,13.89l-17.67,18.4c-4.45,4.64-5.94,8.37-6.89,14.63-.7,4.64-2.03,10.33,1.38,14.49,3.08-5.03,11.43-14.11,16.07-10.35,1.12.9,1.81,4.53,1.06,5.78l-6.42,10.75-10.99,6.68-.34,5.18c-.31,4.7-.06,9.28.8,14.65,1.64-4.31,1.5-7.66,1.46-12.61h4.84s-1.24,8.19-1.24,8.19l24.2.66c8.6.23,16.97-.1,25.54-.51,14.28-.69,21.31-9.01,22.96-22.53l1.98-16.21,1.8-11.04.92-35.65ZM320.78,67.9c6.33-1.6,7.38-6.88,6.25-11.95-2.43-10.91,5.15-26.67-6.35-29.24,2.52,5.25,1.78,13.3,1.22,17.99-1.95,16.42.79,7.17-1.12,23.2ZM315.51,63.9l1.72-16.01c.27-2.49-.88-6.1-.89-8.28l-.04-9.38c-1.77,1.71-2.61,3.75-2.66,6.16-.15,6.16-1.04,12.14-1.59,18.12-.09.92.45,10.42,1.36,12.56.22.51,1.67-.13,1.77-.67.07-.36.19-1.29.32-2.5ZM143.24,76.33c.2-2.14-3.54-6.29-6.04-5.98-4.07.51-5.83,2.69-6.5,5.8-.44,2.06,3.2,6.16,5.11,4.94l7.44-4.77ZM158.54,110.14l12.07-6.59,5.25-9c-1.86-1.4-4.96-1.08-6.07.47l-3.14,4.38c-2.73,1.42-4.81,3.12-5.86,6.05-1.18,1.64-3.25,2.78-2.24,4.7ZM210.16,104.38c2.13-.87,4.54-1.69,4.44-2.73l-.49-4.79c-.16-1.55-.88-3.59-1.97-3.57-1.21.03-4.36-.36-4.5.7-.11.85,0,3.48.28,4.25l2.24,6.14ZM236.42,108.05c6.24-1.96,8.38-6.81,9.72-12.08-3.52,2.45-5.3,4.95-7.13,7.91l-2.59,4.18ZM203.84,129.13l-5.03-7.35c-6.15,2.15-8.17,6.67-8.36,12.62-.13,4.21,1.03,8.08,3.75,11.2l9.64-16.47ZM29.93,240.38c1.39,2.12,6.32.42,7.99-1.9,3.77-5.28,7.29-9.3,12.36-14.61-6.62-3.57-23.48-.14-23.87,9.95-.06,1.57,1.63,3.68,3.52,6.56ZM55.77,284.91l3.84-5.66-5.88.07-7.93,14c4.9-1.7,7.5-4.78,9.97-8.41ZM136.63,305.01l-4.19,9.99c-1.67,3.99-4.61,6.87-8.67,8.91,2.25.44,6.48.75,8.76-.96,4.73-3.55,6.53-12.19,4.1-17.94ZM39.9,341.46c2.37-5.41,2.61-10.57.76-16.55-2.31,5.2-3.09,10.96-.76,16.55ZM37.55,361.2l4.56-3.69c2.2-5.63,3.97-10.92,3.29-17.03-7.84,5.92.9,9.15-7.85,20.72Z"/>
    <path class="cls-1" d="M1308.05,254.97c5.58-2.95,8.67,2.36,10.54,7.83,1.72-2.3,4.69-6.72,5-9.6,1.77-16.22.92-13.97-2.53-29.05-1.64-7.17-11.88,1.41-18.96,3.67-8.36,2.66-14.99-1.99-17.86-8.8-3.9-9.26-4.68-18.62-.07-28.36-5.57-4.38-9.2-17.22-9.19-25.32l.02-19.55c0-3.91,1.84-9.08,2.73-13,3.56-15.69,15.23-16.26,21.31-19.49,4.05-2.16,5.37-3.76,10-3.66l9.84.19c4.08.08,9.85-1.68,12.49-4.53,3.59-3.86,3.27-8.87-.96-11.44l-8.66-5.27-9.03-5.49c-.27-.16-1-2.09-.84-2.37.23-.41-.97.36-1.51.71-.38.24.21,1.11.67,1.83l6.26,9.83c-4.8.68-7.93-3.28-9.59-7.39-3.77-9.33-3.06-18.61,3.32-26.19,3.79-4.51,9.09-5.25,14.22-4.44,1.3-.51,4.11-1.76,5.36-1.82,1.73-.09,2.46,3,2.6,5.15l.66,10.04c.4,6.14,10.55,7.47,14.71,5.06.52-3.14.68-7.64,1.76-9.67,2.8-5.25,8.51-4.03,14.52-2l-2.18-14.51c5.81-1.51,8.49-4.69,8.02-10.2,11.69-18.62,24.24-6.06,36.93-4.46,13.27,1.68,2.22,15.98,12.95,19.9l5.61-5.34c-2.06-1.97-6.15-5.4-5.16-9.02.73-2.68,6.14-5.86,8.89-6.35l14.42-2.58c4.53-.81,12.7-.47,17.27.76,9.24,2.49,16.81,3.56,26.39,4.04,4.76.24,10.11,1.93,12.76-2.2,1.25-1.95,4.67-4.66,3.47-6.29s-2.59-3.36-2.49-4.51c.22-2.48,7.23-7.43,9.4-5.1,4.18,4.49,2.77,2.22,15.58.08,4.51-.75,10.79-1.82,13.81,2.7,1.59,2.37.04,15.48-11.85,20.84-4.16,1.87-11.65,6.46-15.94,2.95-3.86-3.16-7.52-6.58-13.39-3.43l-15.54,8.35c11.2,4.38,21.25,5.98,30.96,11.18,16.09,8.6,19.51,14.17,31.3,21.4,11.49,7.05,20.7,20.83,26.19,32.98,3.73,8.25,7.99,16.69,9.98,25.57l3.14,14.05c3.11,13.88.21,40.92-3,54.95-3.68,16.08-5.71,27.72-14.04,42.26-6.57,11.47-9.89,18.24-19.15,27.67-3.06,3.12-5.65,6.01-5.65,10.35-10.22-.74-14.59,13.53-25.38,16.52l-29.53,8.18c-6.6,1.83-14.12,3.8-20.89,4.22-13.29.82-26.25.53-39.33,0l-12.99-.53c-2.82-.11-6.56-.94-10.64-1.38-.37-1.31-.81-4.11-1.2-6.81-2.81.24-6.8,1.77-8.55,4.68-4.03,6.72,4.07,12.6,1.33,17.03-.92,1.49-4.39,4.23-5.82,3.23-11.36-7.93,1.92-20.06-3.5-22.84-22.71.46-17.37-13.77-29.07-13.08-5.62.33-9.05-4.92-13.04-8.12-3.36,1.65-7.46,3.88-11.29,3.26-7.22-1.16-14.17-12.5-17.14-20.07l-5.87,2.03c-2.45.85-5.04,1.38-6.83-.28-3.55-3.29-.26-16.58,4.23-18.96ZM1528.66,35.33l5.68-4.73c2.27-1.89,1.55-8.65,1.23-11.19l-9.85.77c-6.04.47-15.78,2.41-17.91,9.19-.9,1.19-3.19,3.67-4,4.6,4.84.91,7.31,1.88,9.65,4.81,3.69,4.63,13.64-2.15,15.2-3.45ZM1411.21,44.1l.46-6.07c-3.61-.73-7.43-1.12-10.07-2.23-4.89-2.44-9.14-4.29-14.65-4.57-6.59-.34-11.95,4.38-11.76,10.03l19.85-3.88c8.06-1.57,12.66,8.93,16.17,6.72ZM1478.01,45.06l11.36-4.82c.85-.36,2.35-3.03,1.56-3.29-.59-.2-2.28-.55-2.96-.54l-13.79.31c-7.1.16-16-7.4-22.3-2.8l2.56,1.85c.42.3-3.69,7.31,13.91,8.7l.64-2.82c.83-3.62,2.37,6.23,9.02,3.41ZM1440.05,50.93l-2.48-7.42-4.76-2.42,8.75-6.21c-4-.82-7.16-.02-10.91,1.12l-5.12,1.56,2.69,7.63,3.94-4.08c.43.53.79,2.66.31,3.23l-2.08,2.5,9.64,4.1ZM1541.14,97.99c-8.83-7.79-18.77-13.56-28.46-20.41-9.26-6.54-20-9.98-31.11-12.77l-12.25-3.07c-6.01-1.51-12.01-1.57-17.63,1.05l-5.68.02.58,10.76c.33,6.13-.54,12.55-.54,18.79,0,15.2-4.2,10.53-10.96,27.45-.88,2.21-4.33,5.03-5.37,7.01-2.82,5.36-5.63,10.03-12.84,11.27,4.69,6.48,1.5,13.82-4.63,17.53l-8.79,5.32c-3.26,1.97-6.31,3.98-10.07,4.92-9.57,2.39-11.13,14.12-8.6,20.08,1.27,3,14.48-10.08,29.33-2.5,2,1.02,2.46,6.4,1.39,8.64-3.61,7.52-17.13,8.46-26.18,1.79-.77,3.34-.3,6.42,1.2,10.03,3.98,9.52-3.26,13.42,8.9,23.86.45-5.47,1.67-10.53,6.62-13.53,3.24-1.96,8.94-1.06,12.14.44l2.51,8.44,13.68,2.03c-1.27-2.25-3.05-4.46-2.08-4.79,1.33-.45,3.43-.88,4.46-.86.86.01-.91,3.8-.15,4.2,2.06,1.09,7.06-.12,9.66-.74,3.56-.85,6.14-1.36,7.03-5.4,3.58-16.17-.82-9.05,1.61-23.25,2.27-13.19-.48-33.71-2.16-47.5-2-16.39-12.85-17.61-16.53-20.34-.25-.18.23-1.16.5-1.35,1.78-.99,5.26-2.73,5.17-4.61s-.49-4.64-.91-7.54c13.73-1.56,28.72,16.38,29.65,29.32l1.01,14.08.65,12.76c.2,3.9-.38,8.23-.05,12,.46,5.32.54,10.08.44,15.22l-.17,8.72c-.11,5.66-2.02,25.59-7.2,27.67l-16.4,6.6c-2.63,1.06-6.24,1.71-9.33,2.47-6.54,10.33-26.42,11.57-33.2,3.09l-4.46-5.56c-.89-6.14-4.14-9.76-9.53-12.69-1.27-2.37-4.08-5.85-4.25-8.54l-.54-8.54c-.25-3.89-3.54-8.75-3.03-12.42.55-3.96.11-4.62-2.1-7.53-6.49-8.53-3.04-22.95,6.84-27.58,4.35-2.04,8.3-3.62,12.31-5.86l7.82-4.36c1.47-.82,3.21-2.36,3.82-3.68.68-1.46.3-4.21-1.14-5.06l-10.25,4.51c-9.71-.81-15.38-9.26-16.07-18.1-.46-5.89,2.04-8.3,7.31-10.15,4.05-1.42,8.7-3.4,12.48-.89,5.78,3.83,9.01,8.03,12.28,14.56,2.87-1.3,5.09-4.57,5.8-7.69-7.52-4.8-10.66-15.19-3.94-22.07,2.54-2.6,10.2-.74,10.3,2.99l-.8,9.79c.2.52,3.14.28,3.62-.71l4.16-8.6,3.87-7.97c.63-1.29,1.5-17.59,1.43-19.27l-.5-12.4c-1.91-2.13-7.92-.06-10.44-.94-5.78-2.03-11.66-5.19-16.89-8.19-1.77-1.02-2.5-5.98-3.17-7.57l-5.95-3.54c-2.71-1.61-6.37-4.7-9.07-5.38l-19.81,4.17c2.6,10.12,8.49,9.94,7.87,19.31-.14,2.05-1.57,4.88-2.99,5.72-4.68,2.81-10.19-1.74-13.8.3-3.95,5.74-10.78,9.39-17.3,10.21l-1.23,8.02c-12.35,2.92-23.03-16.73-21.19-27.82-6.19-2.34-13.25,14.17-11.32,18.82l7.01,4.54c4.66,3.02,10.81,4.21,14.17,8.93,6.07,8.54-6.1,18.27-11.36,19.88-9.04,2.78-12.43-3.17-26.66,4.31-11.07,5.82-13.91,1.29-19.62,25.08l10.78-8.87c6.09-5.01,18.6-11.18,22.51-3.47,2.5,4.93-5.32,13.36-9.26,17.01-9.5,8.82-21.73,5.03-24.6,9.38-2.33,9.49.95,17.05,5.08,24.61l2.24,4.1c4.87-5.19,19.82-25.01,26.32-18.06.98,1.05.89,4.45.07,5.64l-7.86,11.48c-.49.72-1.27,2.14-1.91,2.11l-2.31-.12c-2.45,10.49-14.07,4.26-14.06,7.99l.02,14.6c0,4.33,2.61,10.3,5.66,13.07,10.93,5.03,14.87-7.62,26.12-7.07,4.76.24,6.56,5.92,7.6,9.27l2.23,7.18c2.62,8.42-.82,34.08-9.59,35.95l7.79,13.57c2.42,4.21,7.38,7.86,12.55,5.14,2.97-1.56,4.94-4.37,8.14-8.06,1.9,3.04,3.18,6.62,3.81,10.58,3.69,3.13,10.72,3.43,10.51,1.62-.09-.77-.8-2.99-.72-3.76l1.07-10.07c.08-.71,1.74-2.21,2.29-2.66s2.36,1.43,2.27,2.16c0-.03-3.43,15.98.62,8.56l3.98-7.3c1.22-2.24-1.66-7.66-2.41-10.27-.26-.89,2.51-2.71,3.23-2.1,8.85,7.53.64,23.48-6.37,27.02,1.33,8.07,9.72,14.33,18.03,12.95,3.8-.63,5.95.85,8.83,4.54l11.52-8.09c.62-.92.02-3.99-.22-5.58l16.27.46c3.94.11,6.33,1.43,11.02,1.33,20.81-.45,20.9,3.36,44.38-1.7,4.95-1.07,10.14-1.65,14.82-3.2,6.23-2.06,12.96-3.35,18.59-6.52,9.72-5.49,20.13-14.05,26.73-23.14,6.87-9.45,14.06-18.53,18.31-29.43,2.7-6.91,5.33-13.98,6.89-21.1l4.5-20.55c1.71-7.8,1.47-27.88.98-36.85-.22-4.03-1.8-9.01-2.61-13.01-2.53-12.51-13.4-36.02-22.79-44.31ZM1369.68,47.46c-2.39,3.44.99,18.26,3.37,19.33,1.29.58,3.64.62,4.55-.17,5.03-4.37-2.94-15.22-7.92-19.16ZM1440.17,56.43c-.06-3.92-1.85-2.54-3.93-3.53-2.89-1.37-7.95-3.57-10.01-1.91-.65.53-.6,4.08.17,4.41s2.57,1.01,3.46,1.01l10.3.02ZM1315.22,64.06c-6.21,1.63-6.89,7.72-5.08,12.14l5.08-12.14ZM1350.64,76.83c4.37-1.79,8.04-3.62,11.93-5.84.78-1.19,1.93-4.4.9-5.16-2.57-1.88-9.85-1.48-11.25,1.21-.41,4.15-.71,6.01-1.57,9.79ZM1344.91,79.73l-7.49-1.5c-.17,4.35,5.58,7.16,8.36,5.68.42-.45-.16-4.04-.88-4.18ZM1425.42,121.51c.68-5.64.97-9.88-.31-13.48-.55-1.5-5.17.11-5.64,1.63-1.48,4.71,1.97,10.19,5.95,11.85ZM1410.18,137.76c1.41-1.14,2.5-2.01,2.83-2.96,1.7-4.92-8.55-11.5-12.18-14.33l-7.35,3.38c-3.69,1.7-3.84,5.39-2.78,8.64l2.69,8.25c6.08-1.33,5.76,5.96,16.79-2.97ZM1281.78,149.13c6.88,5.08,25.75-8.4,26.97-14.66.33-1.06-2.58-3.49-3.73-3.08l-10.37,3.75c-1.67,1.92-4.35,5.2-6.39,7.31l-6.49,6.68ZM1291.15,187.96c1.16,3.97,16.25-11.19,15.68-15.57l-11.87,9.72c-1.39,1.14-2.17,2.27-3.81,5.85ZM1409.84,192.4c1.34-.96,1.7-5.47.26-6.07-6.24-2.6-13.88-.5-19.21,3.32,3.6,6.27,12.31,7.52,18.95,2.75ZM1407.48,229.43c4.7-.27,8.94-2.78,9.37-7.25.29-3.04-4.81-6.72-7.48-4.48-3.48,2.94-7.96,6.58-6.97,9.53.6,1.79,2.51,2.34,5.08,2.2ZM1418.93,246.5c4.9-.44,9.49-1.07,13.29-3.64l-8.75-2.03c-5.05-1.17-8.45-3.51-10.28-9.28l-10.03.93c1.3,2.89,3.02,8.32,5.73,10.37l5.37,4.06,4.67-.42ZM1315.06,268.09c.58-4.4-2.41-9.1-5.96-8.87-1.53,3.21-2.1,7.05-2.22,11.28,2.95-.72,5.91-1.54,8.19-2.4Z"/>
    <path class="cls-1" d="M724.93,232.95c-3.16,20.48,11.59,26.36,12.52,24.89,1.56-2.49-1.23-10.77-.82-14.38,1.26-11.13,1.78-21.14,1.91-32.15.07-6.16.72-12.67,5.34-17.55l-2.78,12.68.27,20.11c6.45-4.53,5.61-12.25,6.13-19.34.38-5.17,1.17-9.8-.28-14.88l-3.25,2.07c.58-4.73,1.79-8.42,3.84-12.51l1.87-3.75c.43-.87,3.4-.73,3.55-.48-3.71,8.41-2.36,16.7-2.88,22.76-.49,5.75-.94,10.94-1.01,16.62-.06,4.6-4.34,9.06-5.97,13-1.4,3.4-1.36,6.02-5.13,6.67l2.48,1.83c.61.45.2,2.09.24,3.54l.45,16.24c.06,2.15-1.97,7.07.71,7.6,6.36,0,9.91,1.8,12.15,7.64l2.58,6.73c7.1-22.05-2.8-57.73,8.96-77.47,1.85-3.11,3.4-5.31,7.63-6.29,2.62-.6,5.74,2.75,9.49,4.99-9.12-14.88-.61-5.28-12.12-21.71-8.59-12.26-14.63-25.37-33.56-26.55.62,5.29,2.37,10.9,1.8,15.88-1.66,14.57-6.62,15.41-1.73,28.03l-3.89,8.39c-2.66,5.74-4.64,11.02-7.1,17.66-5.01-8.17,8.01-20.01,7.62-26.84l-.83-14.78c1.37-.81,2.49-1.19,2.68-1.83s-.73-2.96-.52-3.9c3.63-15.62-4.15-19.75-2.67-23.8,1.02-2.81,12.39-2.41,17.01-.12,4.8,2.39,10.14,4.5,13.12,8.83l9.89,14.35c10.97,15.92,8.98,17.47,20.83,33.84,3.23,4.47,9.14,7.14,12.67,11.52,3.19,3.96,6.19,9.52,11.56,11.24,4.66,1.49,23.36,1.06,31.38,8.53-5.69,3.03-9.58-1.12-14.63-2.28-15.6-3.6-13.56,1.08-23.33-4.92,1.89,6.33,6.25,11.12,9.83,16.33l6.15,8.95c14.93,21.72,27.75,44.71,55.43,52.18.69.19,2.05,1.16,2.43,1.44.51.39,1.97-1.61,2.83-1.63l22.03-.49c4.95-.11,10.36-1.17,14.34-3.82,13.43-8.92,8.91-40.27,6.99-54.74-.77-5.79-.77-11.24-1.27-17.04l-1.04-12.02c-1.25-14.49-2.64-22.41-2.49-37.87l.16-16.08c.12-12.01-1.77-15.37-.83-27.03l2.24-27.84c1.31-16.23.76-30.16-4-45.82-7.09,1.16-9.55-5.07-12.41-10.71-2.41-4.76-7.04-9.03-11.14-12.65-1.55,5.24-3.9,9.77-7.27,12.92l-4.09-1.41c1.49-1.65,3-3.4,3.51-4.72l2.61-6.72c-6.84.63-13.71,2.54-18.41,7.72-1.5,1.66-3.22,3.04-5,3.91,1.52,2.31,1.74,6.51,1.36,11.22,5.68-.88,11.49-3.46,14.99-9.32,1.58-.06,5.08.88,4.96,1.45l-8.5,10.56c-2.15,2.66-5.18,5.96-8.74,7.13-1.73.57-4.22-3.11-5.53-4.76-1.07-1.35-5.63-.9-6.72.2,1.8,8.6.62,16.69-4.74,24.12l4.38,8.74c3.95,7.88-1.76,14.44-3.13,21.5-1.93,9.89-.73,20.94-.43,31.2.06,1.93,1.81,5.16,1.38,7.06-1.77,7.94,1.84,9.74-2.49,11.38-.82.31-2.07-1.83-2.71-2.88l-3.96,3.58c-1.02.93-2.94,2.55-4.08,2.4-1.33-.18-3.47-2.58-3.72-3.62,6.41-.94,4.9-10.21,6.07-9.07l-1.44-1.42c-.35-.35-.9,2.12-1.28,2.6l-9.15,11.58c-4.83-.23-13.32,6.39-15.92-2.77-1.02-3.59,5.08-12.2,6.14-12.81.96-.55,3.14.03,5.58.42-.71-3.64.08-6.67,3.68-8.68,6.67-3.72,3.26-5.25,5.69-13.52-18.11-15.47-31.67,3.03-36.9-5.01l6.54-3.6,4.2,2.06-2.06-3.32,4.2.45c4.04-3.95,17.89-.1,23.09,2.33.85-1.65.07-5.34.09-7.85.06-6.28,1.69-13.13-.06-19.12l-5.17-5.67,5.87-3.72-.06-25.68c0-.85-2.03-2.73-1.73-3.37l1.58-3.33,3.57-7.55c-11.34-6.14-24.39-6.27-37.8-11.14-14.22-5.16-6.59.14-14.84-.18-.81-.03-1.47-2.89-1.08-3.6l5.62-10.25,10.85-6.02c18.18-10.09,14.97-4.79,33.73-4.42,12.71,9.43,8.5,8.97,16.85,22.85,1.8-2.68,3.07-4.11,4.97-4.84,4.65-1.79,7.72.28,9.86,3.99,1.53.79,4.52-1.2,6.26-1.81,3.64-1.28,7.41-2.25,11.2-3.14,9.06-2.11,18.33,2.94,20.35,11.44.26,1.1-.4,4.41.62,4.74,2.96.69,5.75,2.93,8.21,6.75,2.9-2.29,6.05-5.7,8.2-8.33,1.51.03,4.02.1,5.32-.06,1.3-.16,3.59-3.03,3.43-4.3-.29-2.3-1.59-5.9-2.34-7.23l-2.18,5.3c-2.21-2.32-2.48-3.83-1.49-5.32,1.76-2.64,2.87-2.93,6-2.04,6.57,1.85,4.22,12.7,1.32,16.54l4.35,16.97c2.47,9.66,2.15,19.32,2.08,29.27-.05,7.62-.04,14.56-1.49,22.58-1.69,9.36.13,14.51-1.05,26.89-.55,5.77-.2,11.78-.01,17.59l.3,9.17.27,11.08c.13,5.44.5,10.55,1.06,15.96l1.44,13.94.42,10,1.48,13.01c.46,4,3.44,35.91,3.39,36.81l-.89,14.29c-.3,4.74-5.3,9.27-6.74,13.62-3.15,9.5-9.81,14.59-19.93,16.55l-11.33,2.2c-4,.78-8.89,1.09-12.85.73-6.97-.62-13.91.42-20.69-.71-12.9-2.15-24.37-9.11-34.25-17.7-5.48-4.76-20.51-23.56-24.61-30.11l-15.01-23.95-18.05-27.94c-2.85-4.41-7.06-8.88-12.08-10.12,0,3.94.19,7.7-3.11,8.77l2.71,2.31-.52,6.05c-.06.67-.77,2.2-1,2.82s1.58,2.14,1.72,2.87c.08,8.83,1.68,20.2-.32,29.32l-1.79,8.16c-1.81,8.25-2.82,17.2-7.84,23.99-2.78,3.75-5.56,7.54-6.96,12.05l-5.05,3.04c-2.83,1.71-6.43,5.36-9.75,6.07-11.46,2.44-15.96-.95-24.44.06-2.08,9.66-15.87,20.31-22.08,18.81-2.53-.61-5.44-4.14-7.31-6.46-8.54-2.29-20.38-2.65-26.91-10.23-7.03-8.16,9.79-21.87,16.58-26.25l-4.53-9.12c.51-4.81-.79-9.9-2.9-14.25-1.72-3.55,1.13-19.35,3.48-21.13,4.5-3.42,11.57,5.97,14.22,8.32,4.77-.56,6.37-14.13,6.5-19.38.1-4.2-2.85-8.6-4.39-12.76-1.33-3.58.36-8.09-5-9.77l-1.64-10.62,1.72-.89c1.25,1.39,1.84,2.18,1.95,1.75s.91-2.01.55-2.25l-2.7-1.75c-.81-.52-.36-3.7.1-3.75l2.21.36c.35.06.2-.31-.2-2.85.92-.79.7-.63-1.35,1.02l.44-6.56c.04-.52-1.5-1.83-1.9-1.49-6.09,5.21-2.4,11.12-13.58,14.06-4.64-1.25-3.74-10.29-8.88-17.52.27-2.77,1-7.65,1.61-10.28,2.49-2.17,5.47-5.01,7.65-6.45,4.84-2.88,10.47,2.39,12.8,6.1l5.99-5.59-5.69-1.91,3.06-6.17-3.32-5.8c-1.52-2.66-7.11-9.19-6.36-11.57,1.44-4.58,5.55-5.81,5.04-6.22l-2.83-2.26c.83-.54,3.39.45,4.59,1.76.86.93-1.23,3.21-2.7,4.48,2.42,3.08,3.68,7.44,3.41,11.13,1.99.28,5.61,1.69,5.6,4.37l-.06,16.99-2.85,6.54c.87,3.39,1.42,5.97,1.93,8.86,3.06,17.07-5.22,17.23,1.62,24.6,2.52-3.45,4.78-9.29,8.28-10.73l7.97-3.28c4.38,1.86,5.33,8,3.04,11.8l-6.07,10.07c-2.1,3.49-7.11,1.2-11.69.99,10.16,13.67,8.1,29.84-3.7,40.5l-4.89,6.77c-5.24-.21,7.52-7.91,1.96-6.27l-3.26.96.5-8.71-7.01-2.7-2.63,6.35.04,9.68c2.47-.57,6.42-.28,9.8.72-1.79,2.05-4.03,4.06-5.29,6.52-2.12,4.12,1.11,11.59,5.34,12.86,1.98.59,5.69.7,6.86,1.76,1.32,1.19,2.05,4.76,2.72,6.35l16.7,1.33c-2.71-4.99-5.53-19.15-1.69-21.14,1.85-.96,16.44,14.81,12.56,25.07l15.31.06c5.28-12.49,4.31-8.77,4.63-23.12,7.64-.42,3.23,3.29,13.08,1.87l-4.48-13.86c-2.48-7.66-15.63-1.82-12.91-12.74-2.73.48-6.34-1.27-7.4-3.58-.32-.7-2.55-1.08-3.37-1.47-5.36-2.6-5.57-20-2.44-22.39ZM833.21,41.73c3.59-1.29,3.28-5.95,2.96-9.27l7.31.82c-7.96-8.99-40.86-1.73-45.11,9.25,12.78-3.36,5.17,5.54,18.1-2.83,4.91,2.35,10.88,4.13,16.74,2.03ZM846.57,35.85l7.7,19.11c3.92.28-5.92-23.87-7.7-19.11ZM848.18,51.52c-.25-4.42-2.69-7.6-5.42-10.58l.34-3.16c.05-.5-2.33-.33-2.5.11l-2.45,6.44,10.03,7.19ZM869.1,62.03l-1.73-1.05c1.04-.47,2.81-.95,2.82-1.85.01-.73-.98-3.11-.68-3.77,1.22-2.72,3.78-9.92-1.05-10.45-5.27-.58-5.49,5.84-6.99,8.88-.88,1.77-4.95,3.68-2.92,6.18l4.59,5.66c2.35-3.07,7.09-2.9,5.95-3.59ZM841.46,52.86c-1.77-2.69-4.16-4.2-7.22-6.04-2.11.85-3.92,2.01-4.18,2.94,4.89.42,7.34,1.22,11.4,3.1ZM832.94,175.18l2.02-9.04c-5.68.67-8.53,6.26-7.96,10.44.11.8,2.34,1.7,2.8,1.05.37-.52,3-1.82,3.14-2.45ZM681.5,196.51l1.73-2.62c-1.28,1.94,2.26-16.28-8.1-15.29-4.21.4-8.29,6.7-8.48,10.6l6.45,13.09c3.23,0,6.41-2.74,8.41-5.77ZM703.22,223.28c3.25-4.43,4.95-8.56,6.29-14.05-4.05-.12-5.55,2.09-7.63,4.57l-7.86,9.36,9.2.12ZM718.15,306.09c-.19-5.8-1.2-9.93-4.25-13.94-3.35-.14.33,15.66,4.25,13.94ZM752.06,296.13l-4.14-4.44-3.68,11.82c3.89-.34,7.33-4.58,7.82-7.37ZM681.07,323.54l8.01-9.12c-4.67-3.69-5.14-7.01-4.81-12.16-1.58-.23-4.5.23-5.52,1.25l-13.08,13.01-.95,8.07,13.05,4.71c1.03-2.61,1.84-4.07,3.31-5.75ZM713.32,324.02l-6.47-4.37-4.27-.91c-3.38-1.31-6.23-1.83-10.08-1.36-.38,6.71-.8,13.14,3.03,18.87,3.63,5.44,17.15-6.95,17.79-12.22Z"/>
    <path class="cls-1" d="M1066.11,134.07l-1.4-8.85-6.19,6.48c-.93.97-3.72,2.18-4.84,2.99-4.92,3.58-11.71,3.83-17.26.9.32,8.12-12.82,15.01-21.91,15.54-4.75.28-12.18-3.77-14.8-7.15-.64-.83.06-3.77-.73-4.27-.79-.5-3.38-.33-4.34.2-9.6,5.35-23.4,2.25-27.05-9.14l.89-15.5,6.25-15.03c2.44-5.87,1.04-12.51,5.39-17.95l6.27-7.83-7.27-2.88c-4.45-1.76-6.65-4.09-6.12-9.35.18-1.81.7-3.5,1.67-5.05,3.46,8.14-.43,11.19,9.99,14.04l4.91,1.34c1.12.31,2.33-2.41,3.37-3.4,4.15-3.89,9.12-8.83,9.85-14.07.12-.9-.97-3.82-.19-3.69l3.97.69c.89-2.51,3.35-4.67,6.88-6.14-.01-5.54-18.86.47-21,2.17-.19-.1-1.9-2.01-1.4-2.26l3.03-1.58c7.13-3.72,17.44-9.08,22.99.35,3.47-.28,7.04-.44,10.02-1.31,5.62-1.63,18.08-2.19,18.29,5.75.04,1.57-1.25,4.34-2.7,5.86l-7.23,7.61c-.35.37-2.79-1.05-2.5-1.5l1.55-2.34,7.46-10.43c-4.58-3.45-9.24-3.24-14.23-2.34l-9.79,1.77.88,7.2c.28,2.27.47,5.23-.97,6.7-1.72,1.75-4.79,1.84-7.63,2l-3.12.17c-1.55.08,8.35,11.59,12.52,8.5,2.45-1.82,5.18-3.99,7.51-5.91,1.53-1.27,3.89-4.18,5.79-2.73.48,5.04-4.39,7.71-9.21,10.56,5.46,5.53,22.31-.32,30.39-3.21-4.2-2.7-7.51-4.39-8.54-7.85-2.51-8.46,2.67-16.65,8.28-20.87,3.87-2.91,10.53-2.85,14.77-4.34,4.94-9.84,12.14-9.51,22.62-8.22,4.43.54,9.22,4.34,13.38,6.02l6.99,2.82c7.84-4.6,17.02-6.3,26.4-6.49l8.39-.18,9.46-.63c17.09-10.63,38.16-9.58,52.23,5.31l8.14,8.61,8.57-2.08c12.82-3.11,15.03,4.69,18.64,4.49,4.13-.23,1.23-5.8,13.43-.12,2.29,1.06,4.26,2.89,4.61,5.44l2.7,19.33,3.51,23.31c1.06,7.05.45,14.39,0,21.78-.19,3.05-3.54,7.81-5.85,9.91-10.13,9.21-24.16,11.92-37.88,11.66-9.45-.18-17.91,1.16-27.48-2.21-2.49-.88-15.46,2.19-16.48,2.94-4.27,3.15-2.44,20.43-2.26,24.7l.83,19.63,1.07,28.65.97,13.21,2.75,26.53c1.3,12.56.94,45.07-9.48,53.85-13.74,11.58-20.97,9.4-37.7,10.02l-11.19.41c-9.27.34-18.03-2.54-24.77-2.23l-13.34.61c-5.15.24-9.71-.56-11.87-7.25-2.11,3.96-4.46,6.84-7.83,10.03-3.28-.12-15.33-3.2-15.68-7.83-.55-7.38,8.39-20.16,14.63-21.22.22,7.88-5.75,4.19-9.79,17.82-.51,1.73,2.75,4.53,4.53,4.76,8.17,1.07,9.46-6.73,12.6-18.46.42-1.56-4.92-2.3-6.2-2.05.41-2.54,2.89-4.88,6.98-5.38l-2.36-14.91c-.43-2.74-1.45-6.96-2.58-9.3-10.43-7-14.13-19.21-8.64-30.59,1.69-3.5,1.73-7.24-.58-10.34-.82-1.09-.48-3.88-.56-5.62-.35-6.97-1.41-18.33,1.48-24.21-2.64,2.05-5.69,4.98-8.58,5.76-4.42,1.19-7.24-1.71-8.18-5.13-2.7-9.82,2.13-26.55,14.42-29.21l10.8-2.34c2.72-8.69.57-17.02-3.34-25.47ZM1177.91,60.39c-2.63-3.2-5.99-8.17-2.87-12.09,11.25-14.14,16-4.43,35.23-3.75-7.95-7.04-9.01-12.64-20.76-14.8-4.64-.85-10.52-2.02-15.39-.63l-14.29,4.07,5.62,2.23c2.02.8,3.84,5.57,2.68,7.97l-15.6,4.91,3.59,2.42c.52.35.35,1.81.29,2.32,1.53.08,3.14.18,4.82.44s2.59,1.82,2.27,3.68c7.38-2.04,7.1,3.78,14.39,3.23ZM1100.24,54.9l10.72-6.08c-.84-2.22-1.67-4.88-2.3-7.35-21.01-9.1-9.82-6.38-29.68-6.99-1.71-.05-3.58,1.3-5.66,3.41,11.01,4.26,23.07,2.68,26.92,17.01ZM1124.55,57.24c.32,1.18,3.57,1.41,4.86,1.2,1-.17.6-3.88,1.52-4.51,3.49-2.07,9.99-5.5,14.07-7.23l3.52-1.5c2.15-.91-2.27-3.9,3.96-10.85l-10.64,1.64c-8.48,1.31-17.09-.47-25.01,4.74.76,2.06,1.96,6.22,3.29,7.6l4.93,5.13c.37.39.66,1.55.52,1.98-.09.28-1.11,1.51-1.03,1.79ZM1165.6,40.47c-3.96-2.69-5.6-3.5-8.39-3.7-2,.29-3.21,4.29-3.16,6.86l11.56-3.16ZM1100.37,258.79c-7.14-12.63.1-14.12-3.74-25.7l-2.79-8.4c-4.64-13.99-8.22-15.01.59-30.13l2.41-8.87,3.18,2.56-5.41,8.73-1.4,8.43c-.88,5.3,1.15,10.55,3.55,15.21,1.43,2.77,2.17,6.04,3.21,8.88,2.51,6.88,2.01,12.69,1.75,19.89-.2,5.5,2.44,12.06,3.41,17.84.92,5.47.77,11.29,1.21,17.08s-.63,11.7-6.65,14.44l15.7,1.93c5.32.65,35.1,1.56,39.48-1.57l8.29-5.31c2.22-12.04,4.25-27.93,2.81-40.58l-3.18-28.02c-.51-4.46-.39-8.75-.47-13.08l-.22-12.84-.65-14.11c-.1-2.19.13-5.36.25-7.62.92-16.78-4.53-33.24,4.04-47.34,9.53-9.83,21.67-8,34.28-6.58,10.17,1.15,31.27,1.84,39.87-1.15,15.58-5.41,11.46-23.42,9.44-38.02l-2.53-18.26c-18.73,4.63-20.21-3.08-22.02-2.56l-4.62,1.33,1.85,2.05c.23.26-1.78.52-2.13.41l-5.77-1.97c-9.72.03-19.11.06-28.43-1.74l-5.47-1.05c3.28,2.23,7.7,10.01,3.3,13.16-8.62,6.19-20.38,5.29-29.89,2.45-5.39-1.61-22.88-1.52-26.73-13.21-6.15.28-13.73.43-20.52.18-1.16-.04-1.63-3.72-.49-3.74l17.13-.35c.71-4.42-3.68-10.45-8.92-9.52-5.8,1.03-11.34,5.56-15.21,8.91l-2.01-3.28c-.27-.45-1.77,2.05-1.63,2.56.48,1.82,4.31,3.48,7.32,1.43,1.51-.03,1.93,2.23.26,2.4-2.13,1.96-3.97,3.47-5.8,2.8-6.57-2.41-2.64-4.89-18.01-8.93-4.03-1.81-11.18-14.79-11.8-14.8-12.05-.26-21.1,12.06-18.92,17.87.74,1.98,3.95,4.62,6.77,5.1,7.91,1.35,19.57-5.32,18.33-.98-.17.6-1.04,2.46-1.71,2.73l-28.79,11.64c-4.49,1.81-8.08,1.39-12.92.67l-8.81-1.32c-7.47-1.12-16.59,1.46-24.1-.78-3.72-1.1-5.95-2.09-8.81.89-4.97,5.18-8.82,11.15-7.95,19.07l6.98-4.92c4.97-3.5,8.94-2.81,13.54-.06,5.27,3.15,9.66,6.72,9.44,13.32-.19,5.59-3.74,9.7-9.4,12.37-4.14,1.96-10.48,7.31-15.08,3.47-4.15-3.47-6.35-9.98-9.72-15.08l-3.38,10.33c-.93,2.83-.88,8.77-.05,11.84,2.39,8.9,12.31,11.08,19.83,7.89,4.47-1.9,7.58-4,9.73-8.51,1.55-3.26,5.85-9.15,9.48-7.68,3.75,3.39-1.59,8.08-3.6,10.46l-7.32,8.67,9.98,5.18c9.19,4.77,16.72-2.69,22.51-9.1-2.1-1.48-4.91-3.15-5.6-4.72-1.83-4.14,1.49-8.37,4.01-11.05,2.51-2.68,11.75-13.42,15.57-8.38l-1.73,9.88c-.7,4.01-1.32,8.13-4.6,10.89l5.51,2.85c-.17.12,1.5-2.44,2.35-2.71,7.91-2.53,15.99-10.76,17.58-19.27.41-1.47,4.91-.91,6.16-.37-5.21,12.8-.32,12.31-.72,23.94l3.05,3.42c.68.76-.91,2.83-1.02,3.75,3.24,7.19.26,16.75.42,18.45.26,2.84.41,5.57-.5,8.21l-7.26,21.12c-2.73,7.94-2.8,28.72,1.62,29.93,3.38.92,5.76,1.07,7.54,3.47,1.48,1.99,2.64,5.55-.33,7.45-2.41,1.55-5.78-.45-8.9-2.39-2.34,5.33-4.66,15.99.75,20.87,2.11,1.91,3.9,3.4,6.04,5.15l-1.9,1.75c-.34.32.53,1.32.85,1.83.25.39.62-.28,1.76-1.52,1.04,1.17,2.91,5.62,1.75,7.16-.82,1.09-3.23,3.2-2.35,3.89,1.18.93,3.06,1.73,4.83,2.36-1.71,2.58-1.84,6.09-.6,9l-.28,6.03c5.36,2.08,9.11,4.43,13.63,7.8,2.41,1.8,7.82.49,9.54-2.27,1.45-2.31,2.33-5.85,2.04-8.96l-1.39-15.2c-.27-2.91-.58-6.91-.68-9.36ZM1089.91,57.42c2.83.79,6.01-1.05,6.32-3.5.85-6.71-15.9-12.77-22.05-9.78.59,3.74,2.97,9.73,6.99,10.85l8.74,2.43ZM1206.53,51.46c.75-.34,1.82-4.52.48-4.66-3.32-.35-7.87-.15-10.63-.75-5.98-1.3-11.39-2.01-16.98.83-.64,1.96-1.82,6.36-.99,8.09,1.05,2.2,5.3,4.14,6.89,4.07,5.12-3.48,10.46-5.95,15.97-8.33l2.37-1.03c.47-.2,1.03.51,2.89,1.77ZM1233.21,65.06l12.04-2.5c1.25-1.52,1.47-7.54-.32-8.88-2.43-1.82-6.14-3.95-8.23-5.25-.25-1.27-.84-3.91-.88-3.83-5.72,4.25-6.49-1.77-8.85,2.41-.43.75,7.55,4.23,4.58,10.05-.91,1.78-2.59,3.97-4.26,6.22l3.99-.56c.69-.1,1.47,1.83,1.92,2.35ZM1004.89,60.71l10.08-1.95-1.12-10.35-4.99,4.79c-2.21,2.12-3.47,4.04-3.97,7.51ZM1214.66,62.59l15.47-5.96c-1.07-2.33-4.74-7.04-7.62-7.6l-8.6,1.74c-2.19.44-5,4.78-4.71,6.43,2.31.23,5.58.47,5.56,1.58l-.09,3.81ZM1179.88,73.47c4.08-7.05-17.23-13.99-22.25-15.88-3.28-1.23-5.85-5.92-8.78-7.81s-7.21,2.55-9.61,3.61c-5.98,2.64-10.08,8.49-6.6,14.61l9.25,3.53c5.07,1.94,11.36,2.09,16.76,3.5,8.31,2.17,12.71,1.55,21.23-1.56ZM1011.81,75.36l-7.19-7.35c-.58-.59-1.12-3.01-1.91-2.87s-2.78,1-3.22,1.67l-4.28,6.48c2.78,1.18,11.41,2.84,16.61,2.08ZM1004.65,109.01c1.1-1.88.97-7.21-.35-8.86-1.94-2.43-7.81-6.16-10.88-5.59-4.97.94-7.89,4.46-12.44,7.53.58,3.52,4.76,15.31,8.04,16.06s12.92-4.54,15.62-9.13ZM1039.25,128.63l3.69-12.42c-3.39.46-4.17,2.33-5.75,4.22l-6.68,7.99,5.19,3.82c.16-.15,3.23-2.54,3.55-3.61ZM1056.54,186.61l6.76-13.2c1.2-2.35,2.17-4.41,3.47-7.57-8.64-1.58-13.7,3.03-17.54,9.66-2.65,4.58-3.4,9.45-.48,14.39.84,1.42,3.61,1.76,5.2.78.99-.61,1.84-2.62,2.58-4.06ZM1087.96,298.77l-10.78-6.47c-1.81,2.68-2.52,6.39-3.16,11.54,8.34,1.9,7.69-2.97,13.94-5.06Z"/>
    <path class="cls-1" d="M414.73,195.43c-.56,3.53-1.27,7.79-1.51,12.01-.17,2.96-2.15,5.42-3.1,8.19-1.58,4.62,3.58,9.91-2.7,17.4-6.19,7.38-14.64,8.31-22.62,2.56-2.14-1.54-4.93,2.22-5.89,3.97-5.21,9.4-6.66,8.62-10.42,17.58,4.11,3.13,9.04,6.37,10.19,10.84.37,11.86,2.38,5.43-5.14,16.09-4.51,6.39,9.99,11.12,6.12,23.89l8.53,2.78c1.78.58,2.92,5.2,3.67,7.35,5.68-.1,12.64.9,18.1-.42l17.19-4.15c10.23-7.19,19.03-14.53,23.97-26.97l7.59-6.99,24.33-2.86c17.23-2.03,10.33,3.39,29.53-1.56,10.93-2.82,24.58-3.59,34.77,2.16,8.59,4.85,15.11,34.05,32.21,34.6l16.69.53,10.13,1.03c8.78.9,17.7,1.56,25.94-1.14,10.11-3.31,9.05-14.03,7.06-23.05-2.46-11.15-5.45-21.6-9.65-32.26l-9.37-23.8c-7.35-18.65-10.42-26.55-15.9-46.09l-7.39-26.37c-1.31-4.68-2.26-8.36-4.18-13.27-.51-1.31.31-3.49,1.25-4.97l-2.3.45c-.47.09-.44-1.61-.62-2.22-3.87-13.15-8.39-23.48-14.51-35.45l-7.48-14.62-7.21-13.94c-.48-.93-2.44-2.17-3.61-2.48.42,19.96,5.62,17.37,6.47,32.16.25,4.31-1.4,7.85-4.47,9.71-1.16.71-4.53-.13-5.59-1.03l-6.09-5.17c-1.54-1.31-3.78-2.31-5.77-3.02v-1.91c-.01-.65-1.79-1.2-2.59-1.54-2.86-1.22-5.04-1.54-6.17,1.26-.98,2.43-.26,4.28,1.82,5.11l-1.79,4.07c-.48,1.08,2.32,2.8,3.57,3.09,10.53,2.36-.5,12.07,18.15,16.87,4.93,1.27,6.63,5.98,7.07,10.85l5.65,3.24c1.09,7.15,5.16,17.68,8.38,23.36.31.55.54,2.76.03,3.02l-2.02,1.05c-.69.36-1.59-2.37-2.17-3.09-3.91-.67-6.88-3.39-7.58-7.99-.72-4.71-2.32-9.37-3.76-13.94-1.07-3.39-2.28-6.88-6.09-6.96-1.38-.03-3.31-.12-3.94-.66-.79-.68-.96-2.75-1-4.75l7.96,4.32c1.39-3.82-5.6-5.72-7.55-6.02-.98-.15-1.55,1.94-2.91,3.78l-3.34-6.94c-8.79-3.98-15.95-11.82-14.64-21.9.45-3.49.54-8.66,3.18-10.83,3.81-3.13,8.68.02,11.62,2.38l9.58,7.72c1.2.96,3.2,2.04,4.92,3,7.4-14.66-9.46-22.13-3.3-40.54,2.4-.76,4.82-2.54,5.59-5.32,1.04-3.79.72-5.64-1.35-9.89,5.74-.9,6.34-.45,8.93,3.88l8.96,14.96,11.32,21.79,11.13,20.91c1.46,2.75,2.61,5.54,3.45,8.58l3.26,11.8,4.69,15.25,5.4,20.39c4.09,15.44,9.16,29.86,15.24,44.54,3.37,8.12,7.21,15.85,9.88,23.96l10.22,31.05c3.01,9.15,5.43,18.43,5.43,28.48,0,5.2-3.95,12.75-7.65,15.32-16.16,11.2-39.82,11.2-57.44,6.82-3.8-.95-8,.9-12.36,1.21-6.03.44-15.32-1.25-19.84-5.89-4.79-4.92-9-9.45-13.56-14.66-5.2-5.95-5.59-16.48-13.82-17.26-5.46-.52-20.16-.85-23.99.42-8.19,2.72-15.58,2.73-23.97,3.27l-14.64.95c-5.96.39-8.56,4.63-11.44,8.7l-4.22,5.97c-3.73,5.28-8.97,10.66-14.46,14.16-3.96,2.53-13.33,7.42-16.86,8.05-8.52,1.51-18.54,2.99-27.28,3.66-5.55.43-10.17-.02-15.23,2.23-2.6,1.16-4.44.22-6.24-1.96l-14.02-.23-4.03,15.08c-2.42,9.06-1,14.54-5.2,15.19-2.39.37-3.13-2.62-4.31-4.37-3.05-4.54-4.34-8.3-4.5-13.93l-.31-10.89c-.12-4.33.1-7.46,2.09-11.36,2.71-5.31,5.3-8.33,11.69-8.8,6.84-.5,14.43-3.2,18.4-9.35,1.95-3.02-2.51-15.75-5.46-17.29-4,5.98-10.66,8.24-16.11,4.39-1.37-3.5.34-10.17,4.54-12.15,2.92-1.38,6.65,1.27,9.27,3.55,3.07-1.46,7.28-6.03,8-10.05,1.87-10.49-10.66-13.34-11.37-14.86-1.62-3.47,8.65-17.3,11.64-20.91,2.65-3.21,2.14-5.91.32-9.26-2.54-4.67,3-9.5,2.77-13.54-.38-6.64-4.42-13.79-8.17-19l-2.13-2.94c-.72-1,2.01-3.19,2.69-2.26l6.86,9.45c1.48,2.04,2.4,6.96,3.16,9.19.31.91,2.7-.9,3.46-1.69l5.99-6.28c1.93-2.03,7.3-2.72,10.16-.69,2.06,1.45,4.18,4.23,7.45,7.71,2.04-13.12,4.43-11.94,1.03-22.18-1.35.21-3.92.09-5.3-.6l-7.11-3.57v-4.72s6.31,3.09,6.31,3.09c3.04,1.49,5.62,3.59,9.2,5.72.56-2.93-.38-5.25-2.43-6.79-12.06-9.06-7.63-8.82-22.94-9.2l-4.41-.11c2-3.72,5.04-2.79,8.14-2.62l8.58.48,15.21,8.78c.78.45,3.65.41,4.02,1.22s.25,3.59-.58,3.86l-4.1,1.34,4.42,8.6c.25.48.58,2.91.05,3.05-.71.19-1.19.14-3.44.04ZM401.61,208.12c-1.98-2.18-3.99-3.72-5.51-3.71-2.02.01-4.25.46-5.33,3.7l10.84.02ZM398.94,234.48c5.23-2.37,8.61-12.22,5-18.02-2.3-3.7-9.83-4.95-8.91-5.66l-1.72,1.32-4.95-1.01c-4.83,3.81-3.35,10.84.84,14.58,1.01.91-1.14,3.35-2.06,4.07l-2.55,1.99c-.39.31,7.97,5.63,14.36,2.74ZM360.31,292.53l6.24-5.72c-2.22-2.9-6.69-3.55-9.9-1.13-.46,1.78,1.77,6.55,3.67,6.85ZM380.1,315.76c.16,2.45.15,2.54.68,2.53l2.72-.07c1.09-.03,2.48-.1,2.94-.51s.15-2.17-.42-2.42c-8.12-3.56-10.37-4.03-18.31,2.86l7.32-.23,2.19-2.68c.49-.59,3.46.37,2.86.53ZM350.78,355.65l5.6-22.19c-3.12-.62-4.75-2.01-7.49-4.73l-1.95,14.68c-.15,1.1,1.9,4.1,1.3,5.06-.85,1.37-1.74,3.6-.99,4.31,1.11,1.04,1.99,1.76,3.52,2.88Z"/>
    <path class="cls-1" d="M477.77,203.12c5.19,2.51,8.04,2.05,12.83,1.47,9.46-1.14,17.37,1.36,26.51-2.6,1.77-14.63-7.57-33.64-13.06-47.14-1.29-3.18-2.36-6.33-3.77-8.82l-1.55,2.19c-.26.36-1.22.66-1.64.58.27-4.41.19-8.05-.4-12.85-.29-2.33,3.99-5.28,6.62-5.76l5.77,4.48,19.94,39.11c2.31,4.53,2.8,8.3,3.11,13.5.15,2.63,1.74,6.78,1.46,9.95l-.95,10.54c-2.21,5.25-9.1,9.7-15.11,10.48-11.56,1.5-36.18,3.88-42.24-7.97l2.5-7.15Z"/>
    <path class="cls-1" d="M424.24,121.39c-5.11-6.56-5.3-19.67-6.66-19.53l-3.18.32c-.57.06-1.68-.81-1.91-1.33s-.05-2.59.51-2.45l3.58.89-.85-8.28c-.13-1.23.64-3.65,1.48-4.83,10.19,3.06,11.34,5.62,19.84,9.14,5.29,2.19-4.42-12.69-4.05-16.44.46-4.63,1.34-8.28,2.16-13.19-6.05-2.24-12.99,2.17-10.87-4.28,1.08-3.28,1.26,2.11,8.56-1.73,1.05-.55,3.82.78,4.99,1.47,3.55-3.23,7.66-6.1,11.95-8.5s7.98-3.82,12.84-1.4l2.45,1.23c.72.36.15,3.03-.63,2.83-2.12-.53-7.24-1.31-9.19-.34l-8.94,4.42c-.97.48-2.3,3.04-1.66,3.56,2.68.51,7.29,1.28,8.82,3.2,11.28,14.15,7.89,14.54,9.19,32.31.22,3.09,3.2,7.51,2.64,10.59-.9,4.97-4.09,8.68-5.97,13.17-1.57,3.76-1.25,9.53-2.38,13.68-2.19,8.04-10.02,11.96-18.29,11.75-6.53-.17-11.14-7.64-10.13-14.19.84-5.42-1.19-8.12-4.28-12.09ZM448.27,142.88c3.47-3.03,4.49-6.97,6.11-11.15l-4.24-2.09,4.75-7.76c.89-1.46.62-5.3.75-7.53l2.85,3.33,4-11.59c.11-.3-1.49-1.99-1.62-1.69l-.8,1.87c-1.92,4.5-9.17,7.03-13.3,3.94-.63-.47-1.92-1.87-2.38-2.39-.34-.39.81-1.63,1.44-2.45l4.31,4.12c6.5-1.93,7.35-7.27,7.47-13.17.12-5.55.38-11.81-.75-16.64-6.63,2.54-13.31-13.18-16.77-10.2-5.27,4.55-3.06,8.4-2.45,10.51l3.35,11.65c1.06,3.68,1.24,6.28,5.74,8.12l-2.65,5.27c-.49.98-4.23.49-4.28-.6l-.21-4.65c-.05-1.21-3.43-1.2-4.58-1.84l-13.62-7.62-1.96-.63c-2.8-.9,2.25,5.4,1.2,10.57,7-.73,10.89,5.36,11.29,11.52.28,4.4.93,8.85,1.62,13.48,3.96,2.13,6.51,3.25,10.9,6.58l-10.76-1.39c-.65,4.56-.96,10.48,3.68,13.14,2.4,1.38,8.44,1.42,10.89-.72ZM422.27,103.3c1.25,5.94,2.37,10.3,5.04,16.05,3.37-1.75-.45-18.28-5.04-16.05Z"/>
    <path class="cls-1" d="M549.87,71.53c-5.56.57,2.9,2.4,2.83,5.23-.02.98-.88,3.24-1.78,3.62-1.08.46-3.28-1.15-4.16-1.89-1.72,3.63-3.58,8.35-9.2,7.99l6.28-10.71.51-8.08c-2.26-3.78-3.72-7.22-4.89-11.42-.55-1.99-1.96-4.3-2.78-6.28-3.7-8.93-4.96-19.34-6.69-29.2l-4.82-5.82-8.41-4.65-.35-3.71c-.18-1.95,6.32-.86,4.59-3.07l-1.94-2.47,10.83-1.07,6.49,3.72c2.14,1.23,4.25,1.64,6.23,1.14l3.6,5.04c1.85.64,3.24,1.51,4.05,2.57,1.25,1.62.76,3.91.04,6.25,3.49,1.83,6.27,5.12,5.5,9.46-.75,4.31.28,9.64-.19,13.67-.51,4.33-3.24,8.4,2.68,11.96-3.23,2.02-4.76,5.47-3.89,9.1l3.77-.06c.41.25.18,3.83-.74,3.83h-3.81c-.24.98.03,4.46-1.05,4.57l-2.72.28ZM543.21,21.76c.42-3.63,0-8.55-.87-12.32l-8.51.82.13-5.17c-1.2-.34-4.92-.51-6.98-.4,1.34,1.92,2.52,2.67,2.36,3.43l-.81,3.99c-.81,3.97,7.84,2.22,9.82,9.34.33,1.17,4.73,1.4,4.86.31ZM537.61,34.91c.12,6.32,2.05,10.33,6.22,15.16,2.74-.38-3.96-16.15-6.22-15.16Z"/>
    <path class="cls-1" d="M710.71,87.91c3.84.38,4.54,6.97,4.45,9.91-.31,10.41-17.48,15.31-28.32,13.36-2.22,6.32-5.46,16.43,3.51,19.01l.27,1.31c1.57,7.52-.23-4.26,8.24-5.75,4.22-.74,6.07.16,8.84,3.3,1.44,1.63,3.09,3.49,3.71,4.89s-1.03,5.73-2.57,6.08c-8.66,1.95-17.14-3.91-17.81-3.44l-2.77,1.91-3.3-5.83c-5.54-9.79-2.6,3.17-5.73-14.6l4.39-2.4-1.73-2.29c-.34-.46.77-1.34,1.63-2.48-11.87-4.31-15.15-10.63-13.71-23.6.59-5.35,2.1-9.77,4.36-14.59,1.06-2.27,2.05-5.25,3.76-7.6l4.96-6.82,10.95-6.26c3.48-1.99,6.96.08,9.35,2.37l3.58,3.43c.95.91-.48,4.08-1.62,4.91-2.88-3.66-7.68-6.64-11.72-5.43l.35,4.63c.07.86-1.33,1.85-2.34,2.88l2.62,2.62c.79.79-.47,3.93-1.66,3.87-3.1-2.62-3.45-8.24-2.62-12.91-8.1,2.83-15.68,23.09-15.86,32.89-.26,14.34,8.34,11.83,11.26,16.6l7.53.43c4.47-7.22,8.38,1.26,15.23-5.79,2.7-2.78,3.21-6.27,1.55-11.04l-13.88,3.62c-3.56.93-5.07,7.81-7.84,11.22-.42.51-1.58-2.1-1.42-2.74l1.89-7.51,4.05-2.82c4.83-3.37,11.01-6.08,18.38-5.36ZM705.77,135.86c.02-3.45-2.61-6.08-5.92-5.72-2.23.24-5.8,2.75-5.15,4.89,3.86,2.15,9.06,2.72,11.06.84Z"/>
    <path class="cls-1" d="M786.3,138.41c-3.04-3.61-5.8-12.01-4.4-16.32l2.75-8.48c-4.89.1-6.44-1.13-8.14-4.53-1.11-2.21-1.8-4.62,1.02-6.11,1.76,4.03,6.82,7.54,9.9,7.1.37-.05.77-1.77.96-2.09s1.28-.99,1.4-.63l1.03,3.05,5.07-3.7c1.31-.96-.82-5.28-1.39-6.27l4.51-6.4,2.05-2.57c.39-.5-1.34-6.75-2.06-12.11-.19-1.43-2.73-3.23-4.28-3.21-6.55.06-1.5,5.79-13.03,5.99,1.67-5.32,2.82-8.74,4.77-12.82,1.57-3.28,6.19.58,8.34,1.35,9.08,3.22,12.9,6.46,16.33,14.93,2.28,5.62,3.74,10.95-1.17,15.84l-8.44,8.41c-1.7,1.69-5,3.89-7.17,5.54l-8.19,6.24c0,6.29,2.72,10.94,5.38,16.42.98,2.03,1.85,4.32,5.11,4.3,5.85-.04,7.41-5.56,10.85-2.62.73.62-.18,3.09-1.07,3.65l-11.72,7.31c-2.45-5.15-4.68-7.82-8.42-12.26ZM798.9,105.49l6.24-4.42c6.35-4.49,2.23-15.42-.62-18.62-.05,3.94,1.53,8.39.32,10.26l-4.39,6.79c-.48.74-3.19,1.59-2.9,2.38l1.34,3.61Z"/>
    <path class="cls-1" d="M786.71,85.17c-8.16,5.72-6.2,24.69-13.12,14.81-2.9.22-18.08.64-19.73-1.75-2.67-3.88,1.67-7.68,3.75-11.45-3.55-.18-9.98,1.78-11.76-1.33-2.03-3.54-2.28-7.86-.46-12.05l4.28,10.12,8.1-1.29c-.88-4.01-1.43-8.83-1.71-13.49-4.98-.32-5.1-3.84-6.23-8.35-.69-2.75-5.51-5.89-6.07-9.4-.38-2.34,1.46-7,2.84-9.27,3.33-.44,7.98-.45,10.88.25,10.96,2.68,7.61,13.7,8.62,19.07l1.56,8.23c1.11,5.85-.92,8.01-3.84,12.89-2.14,3.58-3.71,8.77-6.03,13.61,7.37,2.37,14.69-.39,19.72-5.95l2.25.3c.68.09,1.99-2.48,1.31-2.41-.33.03-1.59.38-1.87.54-.42.24-1.11-1.46-.92-1.96,1.12-3,6.13-3.36,8.43-1.11ZM761.55,67.17c1.76-.92,3.42-1.86,2.88-2.05l-2.52-.88-1.14-15.27c-3.23-1.91-7.5-3.14-11.38-3.84-.11,2.75-.11,5.66.87,7.25,4.36,7.07,7.54,14.16,10.05,21.77-.24.61-1.07,2.04-.65,2.29l1.47.9.43-10.18Z"/>
    <path class="cls-1" d="M518.56,68.4c1.04,4.46,1.55,11.48-2.02,13.79-.92.6-3.29-.78-4.07-2.05-2.73-4.5-.25-14.75,4.87-17.34-.99-.13-4.27-1-4.33-2.03-.14-2.58-2.95-8.76-6.97-6.61-2.82,1.51-6.72,5.72-8.64,8.09l2.33,9.41-4.72-3.54-2.16,4.41c-.16-.42-.74-2.21-.74-2.72l.11-13.91c.57-.35,3.01.71,4.37,1.48,1.78-2.32,5.49-6.27,8.79-6.89,5.61-1.06,8.7,8.06,12.79,10.29,2.65-6.15,8.1-7.75,13.4-5.34l-2.65,11.91c-.47,2.1.15,5.57.21,7.97.13,5.38,1.38,9.89,7.43,11.54-1.9,2.4-4.94,1.6-7.45-.14-3.47-2.41-3.47-5.35-4.08-9.12-1.18-7.3-1.03-13.43,4.49-19.25-5.13.6-12.54,3.37-10.98,10.04Z"/>
    <path class="cls-1" d="M739.3,63.95c-3.53-18.03-9.54-14.23-11.29-20.24-2.74-9.42-7.07-7.98-12.23-20.76-1.66-4.1-5.08-6.44-9.23-7.68l-.93,5.91,5.75,18.34c-2.51,7.92-11.67-20.01-10.82-20.85-.17-1.52,1.7-5.19,2.4-6.59,5.47-2.01,11.64.08,14.7,5.01l11.45,18.43c7.91,12.73,7,8.58,13.02,21.32l-1.63,3.51c.64.11,3.77-.22,3.73.63-.04.91-.16,3.21-.15,3.01l-4.77-.05Z"/>
    <path class="cls-1" d="M408.23,149.03c-.94-.69-2.66-2.53-3.66-2.91-3.02-1.13-7.6-3.7-7.16-8.12l10.82,5.73c3.27,1.73,3.57,7.67,8.91,7.88-3.99-7.91-2.97-15.27-9.39-20.52-.62-.51-1.65-2.43-1.3-3.13,3.09-6.18,10.81,6.9,12.25,9.18,7.2,11.42,3.27,13.8,5.86,26.11-7.22,7.01-.94,14.43-8.53,12.4,4.13-10.59,1.06-20.17-7.8-26.62Z"/>
    <path class="cls-1" d="M475.59,70.48c1,4.92,1.91,15.92-4.12,17.53-2.44.65-5.95-1.81-6.46-5.31-.46-3.16-.26-6.18.03-9.39,1.44-15.68,4.65-5.58,2.47-17.81l3.44.43c3.06.38,2.52-8.07,12-7.67,3.59.15,7.66,1.97,8.66,6.34-2.76-1.04-6.34-3.2-8.38-2.49-4.19,1.47-9.55,6-9.35,9.93l1.71,8.43ZM471.01,84.17l.73-9.81c.32-2.62-.21-5.3-1.73-7.13l-2.25,8.72c-.68,2.64.21,5.82,3.25,8.22Z"/>
    <path class="cls-1" d="M709.93,68.75c-.45,3.28-.88,7.31-.08,11.3,2.38,1,6.92-.92,8.43-2.2-2.26-4.16-4.9-13.47-5-16.38l2.67.86c.38.12.43-1.4.06-1.55-.75-.3-3.02-1.14-3.3-1.89l-3.99-10.65c-.96-2.55-1.42-4.87-1.36-6.64,5.77,1.43,5.91,6.51,7.72,10.24,2.42,4.98,3.87,9.86,5.01,15.16,1.25,5.83,4.27,10.73,2.98,17.03l-7.9.59c-3.98.3-8.32-1.2-9.98-5.29-1.27-3.15.37-8.23,4.74-10.57Z"/>
    <path class="cls-1" d="M398.79,107.5c-12.55,8.89-1.68,27.39-6.12,25.07l-1.93-1.01c.23-2.1-.07-4.74-.64-6.63-2.08-7.02,2.2-18.44,8.88-21.44.44-.2,1.5.91,1.39,1.38s-.97,2.19-1.59,2.63Z"/>
    <path class="cls-1" d="M497.48,84.81c-1.51.17-4.54-.83-5.31-1.96s-.86-4.81-.49-5.31l3.2.73c.53.12.78-1.78.93-2.43l.67-2.87c.14-.59,2.91-.76,3.3-.28,2.04,2.51,1.08,9.57-2.31,12.13Z"/>
    <path class="cls-1" d="M979.96,56.54l-2.35,2.03c-.45.39-1.85-1.06-1.66-1.62s1.03-1.97,1.59-2.31l7.97-4.86c.78-.48,2.45-1.19,3.18-1.4s2.04,1.13,2.42,1.55c-4.08,2.05-7.9,3.81-11.15,6.61Z"/>
    <path class="cls-1" d="M697.57,75.54c-1.7,1.82-2.67,3.06-3.66,3.16s-3.23-1.22-3.39-1.91c4.29-5.82,5.7-.81,10.98-4.96.51-.4,1,.41,2.25,1.96l-6.18,1.74Z"/>
    <path class="cls-1" d="M406.54,125.37c-2.88-.47-5.99-5.33-4.74-7.7,1.09-.66,3.83.27,4.5,1.34,1.02,1.62,1.48,4.19.24,6.36Z"/>
    <path class="cls-1" d="M746.34,72.53c.1.78-3.74,1.24-3.92.54-.22-.87-.65-2.88-.54-2.84l3.13-4.92c.31,1.36,1.12,5.6,1.33,7.22Z"/>
    <path class="cls-1" d="M1353.05,277.53l-7.04.26c-.85-5.24,3.24-23.42,4.84-27.25.32-.77,3.86-.17,3.85.66l-.05,4.73c-.02,2.29-1.14,6.33-1.87,8.43-.31.91.34,3.39.17,4.33s-1.88,2.19-2.68,3.12c-.94,1.09,1.04,3.21,2.79,5.72Z"/>
    <path class="cls-1" d="M1099.49,184.03c-3.08-.98-5.81-2.61-8.89-4.53-3.04-7.89-1.85-17.44,3.4-24.15l5.35-6.84c7.13-9.12-7.29-1.27.82-22.09,1.11-2.86.55-5.82-.28-8.67-4.24-14.66-2.87-5.05-1.09-20.62.21-1.8,2.66-3.27,4.41-2.52l-3.03,12.59c7.84,16.02,2.35,21.53.78,29.45-.29,1.48,3.62,3.48,3.64,4.99l.12,7.54c-9.56,9.68-12.9,12.5-11.53,26.72,2.57,2.66,3.97,3.25,6.3,8.15Z"/>
  </g>
</svg>